<svg width="168" height="55" viewBox="0 0 168 55" fill="none" xmlns="http://www.w3.org/2000/svg">
<circle cx="23.5435" cy="23.5435" r="23.5435" fill="#5115B3"/>
<circle cx="33.4566" cy="23.5435" r="23.5435" fill="#5115B3" fill-opacity="0.5"/>
<path d="M36.44 42.14H25.94L23.87 47H19.85L29.3 26H33.14L42.62 47H38.54L36.44 42.14ZM35.15 39.08L31.19 29.9L27.26 39.08H35.15Z" fill="white"/>
<path d="M54.4107 30.8C55.9707 30.8 57.3607 31.14 58.5807 31.82C59.8207 32.5 60.7907 33.46 61.4907 34.7C62.1907 35.94 62.5407 37.37 62.5407 38.99C62.5407 40.61 62.1907 42.05 61.4907 43.31C60.7907 44.55 59.8207 45.51 58.5807 46.19C57.3607 46.87 55.9707 47.21 54.4107 47.21C53.3107 47.21 52.3007 47.02 51.3807 46.64C50.4807 46.26 49.7207 45.69 49.1007 44.93V47H45.5307V24.74H49.2807V32.93C49.9207 32.23 50.6707 31.7 51.5307 31.34C52.4107 30.98 53.3707 30.8 54.4107 30.8ZM53.9907 44C55.3707 44 56.5007 43.54 57.3807 42.62C58.2807 41.7 58.7307 40.49 58.7307 38.99C58.7307 37.49 58.2807 36.28 57.3807 35.36C56.5007 34.44 55.3707 33.98 53.9907 33.98C53.0907 33.98 52.2807 34.19 51.5607 34.61C50.8407 35.01 50.2707 35.59 49.8507 36.35C49.4307 37.11 49.2207 37.99 49.2207 38.99C49.2207 39.99 49.4307 40.87 49.8507 41.63C50.2707 42.39 50.8407 42.98 51.5607 43.4C52.2807 43.8 53.0907 44 53.9907 44ZM73.8971 47.21C72.2771 47.21 70.8171 46.86 69.5171 46.16C68.2171 45.46 67.1971 44.49 66.4571 43.25C65.7371 41.99 65.3771 40.57 65.3771 38.99C65.3771 37.41 65.7371 36 66.4571 34.76C67.1971 33.52 68.2171 32.55 69.5171 31.85C70.8171 31.15 72.2771 30.8 73.8971 30.8C75.5371 30.8 77.0071 31.15 78.3071 31.85C79.6071 32.55 80.6171 33.52 81.3371 34.76C82.0771 36 82.4471 37.41 82.4471 38.99C82.4471 40.57 82.0771 41.99 81.3371 43.25C80.6171 44.49 79.6071 45.46 78.3071 46.16C77.0071 46.86 75.5371 47.21 73.8971 47.21ZM73.8971 44C75.2771 44 76.4171 43.54 77.3171 42.62C78.2171 41.7 78.6671 40.49 78.6671 38.99C78.6671 37.49 78.2171 36.28 77.3171 35.36C76.4171 34.44 75.2771 33.98 73.8971 33.98C72.5171 33.98 71.3771 34.44 70.4771 35.36C69.5971 36.28 69.1571 37.49 69.1571 38.99C69.1571 40.49 69.5971 41.7 70.4771 42.62C71.3771 43.54 72.5171 44 73.8971 44ZM102.143 30.98V47H98.5731V44.96C97.9731 45.68 97.2231 46.24 96.3231 46.64C95.4231 47.02 94.4531 47.21 93.4131 47.21C91.2731 47.21 89.5831 46.62 88.3431 45.44C87.1231 44.24 86.513 42.47 86.513 40.13V30.98H90.2631V39.62C90.2631 41.06 90.5831 42.14 91.2231 42.86C91.8831 43.56 92.8131 43.91 94.0131 43.91C95.3531 43.91 96.4131 43.5 97.1931 42.68C97.9931 41.84 98.3931 40.64 98.3931 39.08V30.98H102.143ZM117.283 46.13C116.843 46.49 116.303 46.76 115.663 46.94C115.043 47.12 114.383 47.21 113.683 47.21C111.923 47.21 110.563 46.75 109.603 45.83C108.643 44.91 108.163 43.57 108.163 41.81V34.1H105.523V31.1H108.163V27.44H111.913V31.1H116.203V34.1H111.913V41.72C111.913 42.5 112.103 43.1 112.483 43.52C112.863 43.92 113.413 44.12 114.133 44.12C114.973 44.12 115.673 43.9 116.233 43.46L117.283 46.13ZM139.249 47.3C136.349 47.3 134.089 46.49 132.469 44.87C130.849 43.23 130.039 40.89 130.039 37.85V26H133.939V37.7C133.939 41.82 135.719 43.88 139.279 43.88C142.819 43.88 144.589 41.82 144.589 37.7V26H148.429V37.85C148.429 40.89 147.619 43.23 145.999 44.87C144.399 46.49 142.149 47.3 139.249 47.3ZM159.081 47.21C157.781 47.21 156.511 47.04 155.271 46.7C154.031 46.36 153.041 45.93 152.301 45.41L153.741 42.56C154.461 43.04 155.321 43.43 156.321 43.73C157.341 44.01 158.341 44.15 159.321 44.15C161.561 44.15 162.681 43.56 162.681 42.38C162.681 41.82 162.391 41.43 161.811 41.21C161.251 40.99 160.341 40.78 159.081 40.58C157.761 40.38 156.681 40.15 155.841 39.89C155.021 39.63 154.301 39.18 153.681 38.54C153.081 37.88 152.781 36.97 152.781 35.81C152.781 34.29 153.411 33.08 154.671 32.18C155.951 31.26 157.671 30.8 159.831 30.8C160.931 30.8 162.031 30.93 163.131 31.19C164.231 31.43 165.131 31.76 165.831 32.18L164.391 35.03C163.031 34.23 161.501 33.83 159.801 33.83C158.701 33.83 157.861 34 157.281 34.34C156.721 34.66 156.441 35.09 156.441 35.63C156.441 36.23 156.741 36.66 157.341 36.92C157.961 37.16 158.911 37.39 160.191 37.61C161.471 37.81 162.521 38.04 163.341 38.3C164.161 38.56 164.861 39 165.441 39.62C166.041 40.24 166.341 41.12 166.341 42.26C166.341 43.76 165.691 44.96 164.391 45.86C163.091 46.76 161.321 47.21 159.081 47.21Z" fill="black"/>
</svg>
