<svg width="196" height="55" viewBox="0 0 196 55" fill="none" xmlns="http://www.w3.org/2000/svg">
<circle cx="23.5435" cy="23.5435" r="23.5435" fill="#5115B3"/>
<circle cx="33.4566" cy="23.5435" r="23.5435" fill="#5115B3" fill-opacity="0.5"/>
<path d="M31.7 36.08C32.86 36.46 33.78 37.1 34.46 38C35.14 38.88 35.48 39.98 35.48 41.3C35.48 43.12 34.78 44.53 33.38 45.53C31.98 46.51 29.94 47 27.26 47H16.82V26H26.66C29.14 26 31.05 26.49 32.39 27.47C33.73 28.43 34.4 29.76 34.4 31.46C34.4 32.5 34.16 33.42 33.68 34.22C33.2 35.02 32.54 35.64 31.7 36.08ZM20.72 29.06V34.85H26.24C27.6 34.85 28.64 34.61 29.36 34.13C30.1 33.63 30.47 32.91 30.47 31.97C30.47 31.01 30.1 30.29 29.36 29.81C28.64 29.31 27.6 29.06 26.24 29.06H20.72ZM27.02 43.94C30.04 43.94 31.55 42.93 31.55 40.91C31.55 38.89 30.04 37.88 27.02 37.88H20.72V43.94H27.02Z" fill="white"/>
<path d="M39.8823 24.74H43.6323V47H39.8823V24.74ZM56.3541 47.21C54.7341 47.21 53.2741 46.86 51.9741 46.16C50.6741 45.46 49.6541 44.49 48.9141 43.25C48.1941 41.99 47.8341 40.57 47.8341 38.99C47.8341 37.41 48.1941 36 48.9141 34.76C49.6541 33.52 50.6741 32.55 51.9741 31.85C53.2741 31.15 54.7341 30.8 56.3541 30.8C57.9941 30.8 59.4641 31.15 60.7641 31.85C62.0641 32.55 63.0741 33.52 63.7941 34.76C64.5341 36 64.9041 37.41 64.9041 38.99C64.9041 40.57 64.5341 41.99 63.7941 43.25C63.0741 44.49 62.0641 45.46 60.7641 46.16C59.4641 46.86 57.9941 47.21 56.3541 47.21ZM56.3541 44C57.7341 44 58.8741 43.54 59.7741 42.62C60.6741 41.7 61.1241 40.49 61.1241 38.99C61.1241 37.49 60.6741 36.28 59.7741 35.36C58.8741 34.44 57.7341 33.98 56.3541 33.98C54.9741 33.98 53.8341 34.44 52.9341 35.36C52.0541 36.28 51.6141 37.49 51.6141 38.99C51.6141 40.49 52.0541 41.7 52.9341 42.62C53.8341 43.54 54.9741 44 56.3541 44ZM84.9901 30.98V44.57C84.9901 50.21 82.1101 53.03 76.3501 53.03C74.8101 53.03 73.3501 52.83 71.9701 52.43C70.5901 52.05 69.4501 51.49 68.5501 50.75L70.2301 47.93C70.9301 48.51 71.8101 48.97 72.8701 49.31C73.9501 49.67 75.0401 49.85 76.1401 49.85C77.9001 49.85 79.1901 49.45 80.0101 48.65C80.8301 47.85 81.2401 46.63 81.2401 44.99V44.15C80.6001 44.85 79.8201 45.38 78.9001 45.74C77.9801 46.1 76.9701 46.28 75.8701 46.28C74.3501 46.28 72.9701 45.96 71.7301 45.32C70.5101 44.66 69.5401 43.74 68.8201 42.56C68.1201 41.38 67.7701 40.03 67.7701 38.51C67.7701 36.99 68.1201 35.65 68.8201 34.49C69.5401 33.31 70.5101 32.4 71.7301 31.76C72.9701 31.12 74.3501 30.8 75.8701 30.8C77.0301 30.8 78.0801 30.99 79.0201 31.37C79.9801 31.75 80.7801 32.33 81.4201 33.11V30.98H84.9901ZM76.4401 43.1C77.8601 43.1 79.0201 42.68 79.9201 41.84C80.8401 40.98 81.3001 39.87 81.3001 38.51C81.3001 37.17 80.8401 36.08 79.9201 35.24C79.0201 34.4 77.8601 33.98 76.4401 33.98C75.0001 33.98 73.8201 34.4 72.9001 35.24C72.0001 36.08 71.5501 37.17 71.5501 38.51C71.5501 39.87 72.0001 40.98 72.9001 41.84C73.8201 42.68 75.0001 43.1 76.4401 43.1ZM105.951 21.74H109.311L99.4112 50H96.0512L105.951 21.74ZM130.164 26V47H126.954L115.374 32.78V47H111.504V26H114.714L126.294 40.22V26H130.164ZM151.091 39.08C151.091 39.34 151.071 39.71 151.031 40.19H138.461C138.681 41.37 139.251 42.31 140.171 43.01C141.111 43.69 142.271 44.03 143.651 44.03C145.411 44.03 146.861 43.45 148.001 42.29L150.011 44.6C149.291 45.46 148.381 46.11 147.281 46.55C146.181 46.99 144.941 47.21 143.561 47.21C141.801 47.21 140.251 46.86 138.911 46.16C137.571 45.46 136.531 44.49 135.791 43.25C135.071 41.99 134.711 40.57 134.711 38.99C134.711 37.43 135.061 36.03 135.761 34.79C136.481 33.53 137.471 32.55 138.731 31.85C139.991 31.15 141.411 30.8 142.991 30.8C144.551 30.8 145.941 31.15 147.161 31.85C148.401 32.53 149.361 33.5 150.041 34.76C150.741 36 151.091 37.44 151.091 39.08ZM142.991 33.8C141.791 33.8 140.771 34.16 139.931 34.88C139.111 35.58 138.611 36.52 138.431 37.7H147.521C147.361 36.54 146.871 35.6 146.051 34.88C145.231 34.16 144.211 33.8 142.991 33.8ZM179.99 30.98L174.08 47H170.48L166.34 35.96L162.14 47H158.54L152.66 30.98H156.2L160.43 42.8L164.84 30.98H167.99L172.31 42.86L176.66 30.98H179.99ZM187.914 47.21C186.614 47.21 185.344 47.04 184.104 46.7C182.864 46.36 181.874 45.93 181.134 45.41L182.574 42.56C183.294 43.04 184.154 43.43 185.154 43.73C186.174 44.01 187.174 44.15 188.154 44.15C190.394 44.15 191.514 43.56 191.514 42.38C191.514 41.82 191.224 41.43 190.644 41.21C190.084 40.99 189.174 40.78 187.914 40.58C186.594 40.38 185.514 40.15 184.674 39.89C183.854 39.63 183.134 39.18 182.514 38.54C181.914 37.88 181.614 36.97 181.614 35.81C181.614 34.29 182.244 33.08 183.504 32.18C184.784 31.26 186.504 30.8 188.664 30.8C189.764 30.8 190.864 30.93 191.964 31.19C193.064 31.43 193.964 31.76 194.664 32.18L193.224 35.03C191.864 34.23 190.334 33.83 188.634 33.83C187.534 33.83 186.694 34 186.114 34.34C185.554 34.66 185.274 35.09 185.274 35.63C185.274 36.23 185.574 36.66 186.174 36.92C186.794 37.16 187.744 37.39 189.024 37.61C190.304 37.81 191.354 38.04 192.174 38.3C192.994 38.56 193.694 39 194.274 39.62C194.874 40.24 195.174 41.12 195.174 42.26C195.174 43.76 194.524 44.96 193.224 45.86C191.924 46.76 190.154 47.21 187.914 47.21Z" fill="black"/>
</svg>
