<svg width="213" height="55" viewBox="0 0 213 55" fill="none" xmlns="http://www.w3.org/2000/svg">
<circle cx="23.5435" cy="23.5435" r="23.5435" fill="#5115B3"/>
<circle cx="33.4566" cy="23.5435" r="23.5435" fill="#5115B3" fill-opacity="0.5"/>
<path d="M30.54 47.3C28.42 47.3 26.5 46.84 24.78 45.92C23.08 44.98 21.74 43.69 20.76 42.05C19.8 40.41 19.32 38.56 19.32 36.5C19.32 34.44 19.81 32.59 20.79 30.95C21.77 29.31 23.11 28.03 24.81 27.11C26.53 26.17 28.45 25.7 30.57 25.7C32.29 25.7 33.86 26 35.28 26.6C36.7 27.2 37.9 28.07 38.88 29.21L36.36 31.58C34.84 29.94 32.97 29.12 30.75 29.12C29.31 29.12 28.02 29.44 26.88 30.08C25.74 30.7 24.85 31.57 24.21 32.69C23.57 33.81 23.25 35.08 23.25 36.5C23.25 37.92 23.57 39.19 24.21 40.31C24.85 41.43 25.74 42.31 26.88 42.95C28.02 43.57 29.31 43.88 30.75 43.88C32.97 43.88 34.84 43.05 36.36 41.39L38.88 43.79C37.9 44.93 36.69 45.8 35.25 46.4C33.83 47 32.26 47.3 30.54 47.3Z" fill="white"/>
<path d="M42.8569 24.74H46.6069V47H42.8569V24.74ZM52.1288 30.98H55.8788V47H52.1288V30.98ZM54.0188 28.34C53.3388 28.34 52.7688 28.13 52.3088 27.71C51.8488 27.27 51.6188 26.73 51.6188 26.09C51.6188 25.45 51.8488 24.92 52.3088 24.5C52.7688 24.06 53.3388 23.84 54.0188 23.84C54.6988 23.84 55.2688 24.05 55.7288 24.47C56.1888 24.87 56.4188 25.38 56.4188 26C56.4188 26.66 56.1888 27.22 55.7288 27.68C55.2888 28.12 54.7188 28.34 54.0188 28.34ZM70.4906 30.8C72.5106 30.8 74.1306 31.39 75.3506 32.57C76.5706 33.75 77.1806 35.5 77.1806 37.82V47H73.4306V38.3C73.4306 36.9 73.1006 35.85 72.4406 35.15C71.7806 34.43 70.8406 34.07 69.6206 34.07C68.2406 34.07 67.1506 34.49 66.3506 35.33C65.5506 36.15 65.1506 37.34 65.1506 38.9V47H61.4006V30.98H64.9706V33.05C65.5906 32.31 66.3706 31.75 67.3106 31.37C68.2506 30.99 69.3106 30.8 70.4906 30.8ZM82.5377 30.98H86.2877V47H82.5377V30.98ZM84.4277 28.34C83.7477 28.34 83.1777 28.13 82.7177 27.71C82.2577 27.27 82.0277 26.73 82.0277 26.09C82.0277 25.45 82.2577 24.92 82.7177 24.5C83.1777 24.06 83.7477 23.84 84.4277 23.84C85.1077 23.84 85.6777 24.05 86.1377 24.47C86.5977 24.87 86.8277 25.38 86.8277 26C86.8277 26.66 86.5977 27.22 86.1377 27.68C85.6977 28.12 85.1277 28.34 84.4277 28.34ZM99.1596 47.21C97.4996 47.21 96.0096 46.86 94.6896 46.16C93.3696 45.46 92.3396 44.49 91.5996 43.25C90.8596 41.99 90.4896 40.57 90.4896 38.99C90.4896 37.41 90.8596 36 91.5996 34.76C92.3396 33.52 93.3596 32.55 94.6596 31.85C95.9796 31.15 97.4796 30.8 99.1596 30.8C100.74 30.8 102.12 31.12 103.3 31.76C104.5 32.4 105.4 33.32 106 34.52L103.12 36.2C102.66 35.46 102.08 34.91 101.38 34.55C100.7 34.17 99.9496 33.98 99.1296 33.98C97.7296 33.98 96.5696 34.44 95.6496 35.36C94.7296 36.26 94.2696 37.47 94.2696 38.99C94.2696 40.51 94.7196 41.73 95.6196 42.65C96.5396 43.55 97.7096 44 99.1296 44C99.9496 44 100.7 43.82 101.38 43.46C102.08 43.08 102.66 42.52 103.12 41.78L106 43.46C105.38 44.66 104.47 45.59 103.27 46.25C102.09 46.89 100.72 47.21 99.1596 47.21ZM125.602 47.3C123.982 47.3 122.412 47.07 120.892 46.61C119.392 46.15 118.202 45.54 117.322 44.78L118.672 41.75C119.532 42.43 120.582 42.99 121.822 43.43C123.082 43.85 124.342 44.06 125.602 44.06C127.162 44.06 128.322 43.81 129.082 43.31C129.862 42.81 130.252 42.15 130.252 41.33C130.252 40.73 130.032 40.24 129.592 39.86C129.172 39.46 128.632 39.15 127.972 38.93C127.312 38.71 126.412 38.46 125.272 38.18C123.672 37.8 122.372 37.42 121.372 37.04C120.392 36.66 119.542 36.07 118.822 35.27C118.122 34.45 117.772 33.35 117.772 31.97C117.772 30.81 118.082 29.76 118.702 28.82C119.342 27.86 120.292 27.1 121.552 26.54C122.832 25.98 124.392 25.7 126.232 25.7C127.512 25.7 128.772 25.86 130.012 26.18C131.252 26.5 132.322 26.96 133.222 27.56L131.992 30.59C131.072 30.05 130.112 29.64 129.112 29.36C128.112 29.08 127.142 28.94 126.202 28.94C124.662 28.94 123.512 29.2 122.752 29.72C122.012 30.24 121.642 30.93 121.642 31.79C121.642 32.39 121.852 32.88 122.272 33.26C122.712 33.64 123.262 33.94 123.922 34.16C124.582 34.38 125.482 34.63 126.622 34.91C128.182 35.27 129.462 35.65 130.462 36.05C131.462 36.43 132.312 37.02 133.012 37.82C133.732 38.62 134.092 39.7 134.092 41.06C134.092 42.22 133.772 43.27 133.132 44.21C132.512 45.15 131.562 45.9 130.282 46.46C129.002 47.02 127.442 47.3 125.602 47.3ZM153.259 39.08C153.259 39.34 153.239 39.71 153.199 40.19H140.629C140.849 41.37 141.419 42.31 142.339 43.01C143.279 43.69 144.439 44.03 145.819 44.03C147.579 44.03 149.029 43.45 150.169 42.29L152.179 44.6C151.459 45.46 150.549 46.11 149.449 46.55C148.349 46.99 147.109 47.21 145.729 47.21C143.969 47.21 142.419 46.86 141.079 46.16C139.739 45.46 138.699 44.49 137.959 43.25C137.239 41.99 136.879 40.57 136.879 38.99C136.879 37.43 137.229 36.03 137.929 34.79C138.649 33.53 139.639 32.55 140.899 31.85C142.159 31.15 143.579 30.8 145.159 30.8C146.719 30.8 148.109 31.15 149.329 31.85C150.569 32.53 151.529 33.5 152.209 34.76C152.909 36 153.259 37.44 153.259 39.08ZM145.159 33.8C143.959 33.8 142.939 34.16 142.099 34.88C141.279 35.58 140.779 36.52 140.599 37.7H149.689C149.529 36.54 149.039 35.6 148.219 34.88C147.399 34.16 146.379 33.8 145.159 33.8ZM161.032 33.32C162.112 31.64 164.012 30.8 166.732 30.8V34.37C166.412 34.31 166.122 34.28 165.862 34.28C164.402 34.28 163.262 34.71 162.442 35.57C161.622 36.41 161.212 37.63 161.212 39.23V47H157.462V30.98H161.032V33.32ZM170.513 30.98H174.263V47H170.513V30.98ZM172.403 28.34C171.723 28.34 171.153 28.13 170.693 27.71C170.233 27.27 170.003 26.73 170.003 26.09C170.003 25.45 170.233 24.92 170.693 24.5C171.153 24.06 171.723 23.84 172.403 23.84C173.083 23.84 173.653 24.05 174.113 24.47C174.573 24.87 174.803 25.38 174.803 26C174.803 26.66 174.573 27.22 174.113 27.68C173.673 28.12 173.103 28.34 172.403 28.34ZM194.845 39.08C194.845 39.34 194.825 39.71 194.785 40.19H182.215C182.435 41.37 183.005 42.31 183.925 43.01C184.865 43.69 186.025 44.03 187.405 44.03C189.165 44.03 190.615 43.45 191.755 42.29L193.765 44.6C193.045 45.46 192.135 46.11 191.035 46.55C189.935 46.99 188.695 47.21 187.315 47.21C185.555 47.21 184.005 46.86 182.665 46.16C181.325 45.46 180.285 44.49 179.545 43.25C178.825 41.99 178.465 40.57 178.465 38.99C178.465 37.43 178.815 36.03 179.515 34.79C180.235 33.53 181.225 32.55 182.485 31.85C183.745 31.15 185.165 30.8 186.745 30.8C188.305 30.8 189.695 31.15 190.915 31.85C192.155 32.53 193.115 33.5 193.795 34.76C194.495 36 194.845 37.44 194.845 39.08ZM186.745 33.8C185.545 33.8 184.525 34.16 183.685 34.88C182.865 35.58 182.365 36.52 182.185 37.7H191.275C191.115 36.54 190.625 35.6 189.805 34.88C188.985 34.16 187.965 33.8 186.745 33.8ZM203.997 47.21C202.697 47.21 201.427 47.04 200.187 46.7C198.947 46.36 197.957 45.93 197.217 45.41L198.657 42.56C199.377 43.04 200.237 43.43 201.237 43.73C202.257 44.01 203.257 44.15 204.237 44.15C206.477 44.15 207.597 43.56 207.597 42.38C207.597 41.82 207.307 41.43 206.727 41.21C206.167 40.99 205.257 40.78 203.997 40.58C202.677 40.38 201.597 40.15 200.757 39.89C199.937 39.63 199.217 39.18 198.597 38.54C197.997 37.88 197.697 36.97 197.697 35.81C197.697 34.29 198.327 33.08 199.587 32.18C200.867 31.26 202.587 30.8 204.747 30.8C205.847 30.8 206.947 30.93 208.047 31.19C209.147 31.43 210.047 31.76 210.747 32.18L209.307 35.03C207.947 34.23 206.417 33.83 204.717 33.83C203.617 33.83 202.777 34 202.197 34.34C201.637 34.66 201.357 35.09 201.357 35.63C201.357 36.23 201.657 36.66 202.257 36.92C202.877 37.16 203.827 37.39 205.107 37.61C206.387 37.81 207.437 38.04 208.257 38.3C209.077 38.56 209.777 39 210.357 39.62C210.957 40.24 211.257 41.12 211.257 42.26C211.257 43.76 210.607 44.96 209.307 45.86C208.007 46.76 206.237 47.21 203.997 47.21Z" fill="black"/>
</svg>
