<svg width="194" height="55" viewBox="0 0 194 55" fill="none" xmlns="http://www.w3.org/2000/svg">
<circle cx="23.5435" cy="23.5435" r="23.5435" fill="#5115B3"/>
<circle cx="33.4565" cy="23.5435" r="23.5435" fill="#5115B3" fill-opacity="0.5"/>
<path d="M30.54 47.3C28.42 47.3 26.5 46.84 24.78 45.92C23.08 44.98 21.74 43.69 20.76 42.05C19.8 40.41 19.32 38.56 19.32 36.5C19.32 34.44 19.81 32.59 20.79 30.95C21.77 29.31 23.11 28.03 24.81 27.11C26.53 26.17 28.45 25.7 30.57 25.7C32.29 25.7 33.86 26 35.28 26.6C36.7 27.2 37.9 28.07 38.88 29.21L36.36 31.58C34.84 29.94 32.97 29.12 30.75 29.12C29.31 29.12 28.02 29.44 26.88 30.08C25.74 30.7 24.85 31.57 24.21 32.69C23.57 33.81 23.25 35.08 23.25 36.5C23.25 37.92 23.57 39.19 24.21 40.31C24.85 41.43 25.74 42.31 26.88 42.95C28.02 43.57 29.31 43.88 30.75 43.88C32.97 43.88 34.84 43.05 36.36 41.39L38.88 43.79C37.9 44.93 36.69 45.8 35.25 46.4C33.83 47 32.26 47.3 30.54 47.3Z" fill="white"/>
<path d="M49.4709 47.21C47.8509 47.21 46.3909 46.86 45.0909 46.16C43.7909 45.46 42.7709 44.49 42.0309 43.25C41.3109 41.99 40.9509 40.57 40.9509 38.99C40.9509 37.41 41.3109 36 42.0309 34.76C42.7709 33.52 43.7909 32.55 45.0909 31.85C46.3909 31.15 47.8509 30.8 49.4709 30.8C51.1109 30.8 52.5809 31.15 53.8809 31.85C55.1809 32.55 56.1909 33.52 56.9109 34.76C57.6509 36 58.0209 37.41 58.0209 38.99C58.0209 40.57 57.6509 41.99 56.9109 43.25C56.1909 44.49 55.1809 45.46 53.8809 46.16C52.5809 46.86 51.1109 47.21 49.4709 47.21ZM49.4709 44C50.8509 44 51.9909 43.54 52.8909 42.62C53.7909 41.7 54.2409 40.49 54.2409 38.99C54.2409 37.49 53.7909 36.28 52.8909 35.36C51.9909 34.44 50.8509 33.98 49.4709 33.98C48.0909 33.98 46.9509 34.44 46.0509 35.36C45.1709 36.28 44.7309 37.49 44.7309 38.99C44.7309 40.49 45.1709 41.7 46.0509 42.62C46.9509 43.54 48.0909 44 49.4709 44ZM71.2969 30.8C73.3169 30.8 74.9369 31.39 76.1569 32.57C77.3769 33.75 77.9869 35.5 77.9869 37.82V47H74.2369V38.3C74.2369 36.9 73.9069 35.85 73.2469 35.15C72.5869 34.43 71.6469 34.07 70.4269 34.07C69.0469 34.07 67.9569 34.49 67.1569 35.33C66.3569 36.15 65.9569 37.34 65.9569 38.9V47H62.2069V30.98H65.7769V33.05C66.3969 32.31 67.1769 31.75 68.1169 31.37C69.0569 30.99 70.1169 30.8 71.2969 30.8ZM92.974 46.13C92.534 46.49 91.994 46.76 91.354 46.94C90.734 47.12 90.074 47.21 89.374 47.21C87.614 47.21 86.254 46.75 85.294 45.83C84.334 44.91 83.854 43.57 83.854 41.81V34.1H81.214V31.1H83.854V27.44H87.604V31.1H91.894V34.1H87.604V41.72C87.604 42.5 87.794 43.1 88.174 43.52C88.554 43.92 89.104 44.12 89.824 44.12C90.664 44.12 91.364 43.9 91.924 43.46L92.974 46.13ZM102.779 30.8C105.139 30.8 106.939 31.37 108.179 32.51C109.439 33.63 110.069 35.33 110.069 37.61V47H106.529V45.05C106.069 45.75 105.409 46.29 104.549 46.67C103.709 47.03 102.689 47.21 101.489 47.21C100.289 47.21 99.2388 47.01 98.3388 46.61C97.4388 46.19 96.7388 45.62 96.2388 44.9C95.7588 44.16 95.5188 43.33 95.5188 42.41C95.5188 40.97 96.0488 39.82 97.1088 38.96C98.1888 38.08 99.8788 37.64 102.179 37.64H106.319V37.4C106.319 36.28 105.979 35.42 105.299 34.82C104.639 34.22 103.649 33.92 102.329 33.92C101.429 33.92 100.539 34.06 99.6588 34.34C98.7988 34.62 98.0688 35.01 97.4688 35.51L95.9988 32.78C96.8388 32.14 97.8488 31.65 99.0288 31.31C100.209 30.97 101.459 30.8 102.779 30.8ZM102.269 44.48C103.209 44.48 104.039 44.27 104.759 43.85C105.499 43.41 106.019 42.79 106.319 41.99V40.13H102.449C100.289 40.13 99.2088 40.84 99.2088 42.26C99.2088 42.94 99.4788 43.48 100.019 43.88C100.559 44.28 101.309 44.48 102.269 44.48ZM122.978 47.21C121.318 47.21 119.828 46.86 118.508 46.16C117.188 45.46 116.158 44.49 115.418 43.25C114.678 41.99 114.308 40.57 114.308 38.99C114.308 37.41 114.678 36 115.418 34.76C116.158 33.52 117.178 32.55 118.478 31.85C119.798 31.15 121.298 30.8 122.978 30.8C124.558 30.8 125.938 31.12 127.118 31.76C128.318 32.4 129.218 33.32 129.818 34.52L126.938 36.2C126.478 35.46 125.898 34.91 125.198 34.55C124.518 34.17 123.768 33.98 122.948 33.98C121.548 33.98 120.388 34.44 119.468 35.36C118.548 36.26 118.088 37.47 118.088 38.99C118.088 40.51 118.538 41.73 119.438 42.65C120.358 43.55 121.528 44 122.948 44C123.768 44 124.518 43.82 125.198 43.46C125.898 43.08 126.478 42.52 126.938 41.78L129.818 43.46C129.198 44.66 128.288 45.59 127.088 46.25C125.908 46.89 124.538 47.21 122.978 47.21ZM143.495 46.13C143.055 46.49 142.515 46.76 141.875 46.94C141.255 47.12 140.595 47.21 139.895 47.21C138.135 47.21 136.775 46.75 135.815 45.83C134.855 44.91 134.375 43.57 134.375 41.81V34.1H131.735V31.1H134.375V27.44H138.125V31.1H142.415V34.1H138.125V41.72C138.125 42.5 138.315 43.1 138.695 43.52C139.075 43.92 139.625 44.12 140.345 44.12C141.185 44.12 141.885 43.9 142.445 43.46L143.495 46.13ZM165.461 47.3C162.561 47.3 160.301 46.49 158.681 44.87C157.061 43.23 156.251 40.89 156.251 37.85V26H160.151V37.7C160.151 41.82 161.931 43.88 165.491 43.88C169.031 43.88 170.801 41.82 170.801 37.7V26H174.641V37.85C174.641 40.89 173.831 43.23 172.211 44.87C170.611 46.49 168.361 47.3 165.461 47.3ZM185.292 47.21C183.992 47.21 182.722 47.04 181.482 46.7C180.242 46.36 179.252 45.93 178.512 45.41L179.952 42.56C180.672 43.04 181.532 43.43 182.532 43.73C183.552 44.01 184.552 44.15 185.532 44.15C187.772 44.15 188.892 43.56 188.892 42.38C188.892 41.82 188.602 41.43 188.022 41.21C187.462 40.99 186.552 40.78 185.292 40.58C183.972 40.38 182.892 40.15 182.052 39.89C181.232 39.63 180.512 39.18 179.892 38.54C179.292 37.88 178.992 36.97 178.992 35.81C178.992 34.29 179.622 33.08 180.882 32.18C182.162 31.26 183.882 30.8 186.042 30.8C187.142 30.8 188.242 30.93 189.342 31.19C190.442 31.43 191.342 31.76 192.042 32.18L190.602 35.03C189.242 34.23 187.712 33.83 186.012 33.83C184.912 33.83 184.072 34 183.492 34.34C182.932 34.66 182.652 35.09 182.652 35.63C182.652 36.23 182.952 36.66 183.552 36.92C184.172 37.16 185.122 37.39 186.402 37.61C187.682 37.81 188.732 38.04 189.552 38.3C190.372 38.56 191.072 39 191.652 39.62C192.252 40.24 192.552 41.12 192.552 42.26C192.552 43.76 191.902 44.96 190.602 45.86C189.302 46.76 187.532 47.21 185.292 47.21Z" fill="black"/>
</svg>
