<svg width="99" height="55" viewBox="0 0 99 55" fill="none" xmlns="http://www.w3.org/2000/svg">
<circle cx="23.5435" cy="23.5435" r="23.5435" fill="#5115B3"/>
<circle cx="33.4566" cy="23.5435" r="23.5435" fill="#5115B3" fill-opacity="0.5"/>
<path d="M30.72 29.27V35.66H40.86V38.96H30.72V47H26.82V26H42.15V29.27H30.72Z" fill="white"/>
<path d="M51.7835 30.8C54.1435 30.8 55.9435 31.37 57.1835 32.51C58.4435 33.63 59.0735 35.33 59.0735 37.61V47H55.5335V45.05C55.0735 45.75 54.4135 46.29 53.5535 46.67C52.7135 47.03 51.6935 47.21 50.4935 47.21C49.2935 47.21 48.2435 47.01 47.3435 46.61C46.4435 46.19 45.7435 45.62 45.2435 44.9C44.7635 44.16 44.5235 43.33 44.5235 42.41C44.5235 40.97 45.0535 39.82 46.1135 38.96C47.1935 38.08 48.8835 37.64 51.1835 37.64H55.3235V37.4C55.3235 36.28 54.9835 35.42 54.3035 34.82C53.6435 34.22 52.6535 33.92 51.3335 33.92C50.4335 33.92 49.5435 34.06 48.6635 34.34C47.8035 34.62 47.0735 35.01 46.4735 35.51L45.0035 32.78C45.8435 32.14 46.8535 31.65 48.0335 31.31C49.2135 30.97 50.4635 30.8 51.7835 30.8ZM51.2735 44.48C52.2135 44.48 53.0435 44.27 53.7635 43.85C54.5035 43.41 55.0235 42.79 55.3235 41.99V40.13H51.4535C49.2935 40.13 48.2135 40.84 48.2135 42.26C48.2135 42.94 48.4835 43.48 49.0235 43.88C49.5635 44.28 50.3135 44.48 51.2735 44.48ZM80.2927 30.98V52.82H76.5427V45.05C75.2827 46.49 73.5727 47.21 71.4127 47.21C69.8527 47.21 68.4527 46.87 67.2127 46.19C65.9927 45.51 65.0327 44.55 64.3327 43.31C63.6527 42.07 63.3127 40.63 63.3127 38.99C63.3127 37.37 63.6627 35.94 64.3627 34.7C65.0627 33.46 66.0227 32.5 67.2427 31.82C68.4627 31.14 69.8527 30.8 71.4127 30.8C72.5127 30.8 73.5127 30.99 74.4127 31.37C75.3327 31.75 76.1027 32.32 76.7227 33.08V30.98H80.2927ZM71.8327 44C73.2127 44 74.3527 43.54 75.2527 42.62C76.1527 41.7 76.6027 40.49 76.6027 38.99C76.6027 37.49 76.1527 36.28 75.2527 35.36C74.3527 34.44 73.2127 33.98 71.8327 33.98C70.4527 33.98 69.3127 34.44 68.4127 35.36C67.5327 36.28 67.0927 37.49 67.0927 38.99C67.0927 40.49 67.5327 41.7 68.4127 42.62C69.3127 43.54 70.4527 44 71.8327 44ZM90.7491 47.21C89.4491 47.21 88.1791 47.04 86.9391 46.7C85.6991 46.36 84.7091 45.93 83.9691 45.41L85.4091 42.56C86.1291 43.04 86.9891 43.43 87.9891 43.73C89.0091 44.01 90.0091 44.15 90.9891 44.15C93.2291 44.15 94.3491 43.56 94.3491 42.38C94.3491 41.82 94.0591 41.43 93.4791 41.21C92.9191 40.99 92.0091 40.78 90.7491 40.58C89.4291 40.38 88.3491 40.15 87.5091 39.89C86.6891 39.63 85.9691 39.18 85.3491 38.54C84.7491 37.88 84.4491 36.97 84.4491 35.81C84.4491 34.29 85.0791 33.08 86.3391 32.18C87.6191 31.26 89.3391 30.8 91.4991 30.8C92.5991 30.8 93.6991 30.93 94.7991 31.19C95.8991 31.43 96.7991 31.76 97.4991 32.18L96.0591 35.03C94.6991 34.23 93.1691 33.83 91.4691 33.83C90.3691 33.83 89.5291 34 88.9491 34.34C88.3891 34.66 88.1091 35.09 88.1091 35.63C88.1091 36.23 88.4091 36.66 89.0091 36.92C89.6291 37.16 90.5791 37.39 91.8591 37.61C93.1391 37.81 94.1891 38.04 95.0091 38.3C95.8291 38.56 96.5291 39 97.1091 39.62C97.7091 40.24 98.0091 41.12 98.0091 42.26C98.0091 43.76 97.3591 44.96 96.0591 45.86C94.7591 46.76 92.9891 47.21 90.7491 47.21Z" fill="black"/>
</svg>
