<svg width="267" height="55" viewBox="0 0 267 55" fill="none" xmlns="http://www.w3.org/2000/svg">
<circle cx="23.5435" cy="23.5435" r="23.5435" fill="#5115B3"/>
<circle cx="33.4566" cy="23.5435" r="23.5435" fill="#5115B3" fill-opacity="0.5"/>
<path d="M35.48 26V47H31.58V38H20.72V47H16.82V26H20.72V34.67H31.58V26H35.48Z" fill="white"/>
<path d="M56.4071 39.08C56.4071 39.34 56.3871 39.71 56.3471 40.19H43.7771C43.9971 41.37 44.5671 42.31 45.4871 43.01C46.4271 43.69 47.5871 44.03 48.9671 44.03C50.7271 44.03 52.1771 43.45 53.3171 42.29L55.3271 44.6C54.6071 45.46 53.6971 46.11 52.5971 46.55C51.4971 46.99 50.2571 47.21 48.8771 47.21C47.1171 47.21 45.5671 46.86 44.2271 46.16C42.8871 45.46 41.8471 44.49 41.1071 43.25C40.3871 41.99 40.0271 40.57 40.0271 38.99C40.0271 37.43 40.3771 36.03 41.0771 34.79C41.7971 33.53 42.7871 32.55 44.0471 31.85C45.3071 31.15 46.7271 30.8 48.3071 30.8C49.8671 30.8 51.2571 31.15 52.4771 31.85C53.7171 32.53 54.6771 33.5 55.3571 34.76C56.0571 36 56.4071 37.44 56.4071 39.08ZM48.3071 33.8C47.1071 33.8 46.0871 34.16 45.2471 34.88C44.4271 35.58 43.9271 36.52 43.7471 37.7H52.8371C52.6771 36.54 52.1871 35.6 51.3671 34.88C50.5471 34.16 49.5271 33.8 48.3071 33.8ZM66.2898 30.8C68.6498 30.8 70.4498 31.37 71.6898 32.51C72.9498 33.63 73.5798 35.33 73.5798 37.61V47H70.0398V45.05C69.5798 45.75 68.9198 46.29 68.0598 46.67C67.2198 47.03 66.1998 47.21 64.9998 47.21C63.7998 47.21 62.7498 47.01 61.8498 46.61C60.9498 46.19 60.2498 45.62 59.7498 44.9C59.2698 44.16 59.0298 43.33 59.0298 42.41C59.0298 40.97 59.5598 39.82 60.6198 38.96C61.6998 38.08 63.3898 37.64 65.6898 37.64H69.8298V37.4C69.8298 36.28 69.4898 35.42 68.8098 34.82C68.1498 34.22 67.1598 33.92 65.8398 33.92C64.9398 33.92 64.0498 34.06 63.1698 34.34C62.3098 34.62 61.5798 35.01 60.9798 35.51L59.5098 32.78C60.3498 32.14 61.3598 31.65 62.5398 31.31C63.7198 30.97 64.9698 30.8 66.2898 30.8ZM65.7798 44.48C66.7198 44.48 67.5498 44.27 68.2698 43.85C69.0098 43.41 69.5298 42.79 69.8298 41.99V40.13H65.9598C63.7998 40.13 62.7198 40.84 62.7198 42.26C62.7198 42.94 62.9898 43.48 63.5298 43.88C64.0698 44.28 64.8198 44.48 65.7798 44.48ZM78.9924 24.74H82.7424V47H78.9924V24.74ZM98.6853 46.13C98.2453 46.49 97.7053 46.76 97.0653 46.94C96.4453 47.12 95.7853 47.21 95.0853 47.21C93.3253 47.21 91.9653 46.75 91.0053 45.83C90.0453 44.91 89.5653 43.57 89.5653 41.81V34.1H86.9253V31.1H89.5653V27.44H93.3153V31.1H97.6053V34.1H93.3153V41.72C93.3153 42.5 93.5053 43.1 93.8853 43.52C94.2653 43.92 94.8153 44.12 95.5353 44.12C96.3753 44.12 97.0753 43.9 97.6353 43.46L98.6853 46.13ZM111.46 30.8C113.48 30.8 115.1 31.39 116.32 32.57C117.54 33.75 118.15 35.5 118.15 37.82V47H114.4V38.3C114.4 36.9 114.07 35.85 113.41 35.15C112.75 34.43 111.81 34.07 110.59 34.07C109.21 34.07 108.12 34.49 107.32 35.33C106.52 36.15 106.12 37.34 106.12 38.9V47H102.37V24.74H106.12V32.84C106.74 32.18 107.5 31.68 108.4 31.34C109.32 30.98 110.34 30.8 111.46 30.8ZM151.418 26V47H148.208L136.628 32.78V47H132.758V26H135.968L147.548 40.22V26H151.418ZM172.795 30.98V47H169.225V44.96C168.625 45.68 167.875 46.24 166.975 46.64C166.075 47.02 165.105 47.21 164.065 47.21C161.925 47.21 160.235 46.62 158.995 45.44C157.775 44.24 157.165 42.47 157.165 40.13V30.98H160.915V39.62C160.915 41.06 161.235 42.14 161.875 42.86C162.535 43.56 163.465 43.91 164.665 43.91C166.005 43.91 167.065 43.5 167.845 42.68C168.645 41.84 169.045 40.64 169.045 39.08V30.98H172.795ZM194.205 30.98V44.57C194.205 50.21 191.325 53.03 185.565 53.03C184.025 53.03 182.565 52.83 181.185 52.43C179.805 52.05 178.665 51.49 177.765 50.75L179.445 47.93C180.145 48.51 181.025 48.97 182.085 49.31C183.165 49.67 184.255 49.85 185.355 49.85C187.115 49.85 188.405 49.45 189.225 48.65C190.045 47.85 190.455 46.63 190.455 44.99V44.15C189.815 44.85 189.035 45.38 188.115 45.74C187.195 46.1 186.185 46.28 185.085 46.28C183.565 46.28 182.185 45.96 180.945 45.32C179.725 44.66 178.755 43.74 178.035 42.56C177.335 41.38 176.985 40.03 176.985 38.51C176.985 36.99 177.335 35.65 178.035 34.49C178.755 33.31 179.725 32.4 180.945 31.76C182.185 31.12 183.565 30.8 185.085 30.8C186.245 30.8 187.295 30.99 188.235 31.37C189.195 31.75 189.995 32.33 190.635 33.11V30.98H194.205ZM185.655 43.1C187.075 43.1 188.235 42.68 189.135 41.84C190.055 40.98 190.515 39.87 190.515 38.51C190.515 37.17 190.055 36.08 189.135 35.24C188.235 34.4 187.075 33.98 185.655 33.98C184.215 33.98 183.035 34.4 182.115 35.24C181.215 36.08 180.765 37.17 180.765 38.51C180.765 39.87 181.215 40.98 182.115 41.84C183.035 42.68 184.215 43.1 185.655 43.1ZM215.635 30.98V44.57C215.635 50.21 212.755 53.03 206.995 53.03C205.455 53.03 203.995 52.83 202.615 52.43C201.235 52.05 200.095 51.49 199.195 50.75L200.875 47.93C201.575 48.51 202.455 48.97 203.515 49.31C204.595 49.67 205.685 49.85 206.785 49.85C208.545 49.85 209.835 49.45 210.655 48.65C211.475 47.85 211.885 46.63 211.885 44.99V44.15C211.245 44.85 210.465 45.38 209.545 45.74C208.625 46.1 207.615 46.28 206.515 46.28C204.995 46.28 203.615 45.96 202.375 45.32C201.155 44.66 200.185 43.74 199.465 42.56C198.765 41.38 198.415 40.03 198.415 38.51C198.415 36.99 198.765 35.65 199.465 34.49C200.185 33.31 201.155 32.4 202.375 31.76C203.615 31.12 204.995 30.8 206.515 30.8C207.675 30.8 208.725 30.99 209.665 31.37C210.625 31.75 211.425 32.33 212.065 33.11V30.98H215.635ZM207.085 43.1C208.505 43.1 209.665 42.68 210.565 41.84C211.485 40.98 211.945 39.87 211.945 38.51C211.945 37.17 211.485 36.08 210.565 35.24C209.665 34.4 208.505 33.98 207.085 33.98C205.645 33.98 204.465 34.4 203.545 35.24C202.645 36.08 202.195 37.17 202.195 38.51C202.195 39.87 202.645 40.98 203.545 41.84C204.465 42.68 205.645 43.1 207.085 43.1ZM236.225 39.08C236.225 39.34 236.205 39.71 236.165 40.19H223.595C223.815 41.37 224.385 42.31 225.305 43.01C226.245 43.69 227.405 44.03 228.785 44.03C230.545 44.03 231.995 43.45 233.135 42.29L235.145 44.6C234.425 45.46 233.515 46.11 232.415 46.55C231.315 46.99 230.075 47.21 228.695 47.21C226.935 47.21 225.385 46.86 224.045 46.16C222.705 45.46 221.665 44.49 220.925 43.25C220.205 41.99 219.845 40.57 219.845 38.99C219.845 37.43 220.195 36.03 220.895 34.79C221.615 33.53 222.605 32.55 223.865 31.85C225.125 31.15 226.545 30.8 228.125 30.8C229.685 30.8 231.075 31.15 232.295 31.85C233.535 32.53 234.495 33.5 235.175 34.76C235.875 36 236.225 37.44 236.225 39.08ZM228.125 33.8C226.925 33.8 225.905 34.16 225.065 34.88C224.245 35.58 223.745 36.52 223.565 37.7H232.655C232.495 36.54 232.005 35.6 231.185 34.88C230.365 34.16 229.345 33.8 228.125 33.8ZM250.058 46.13C249.618 46.49 249.078 46.76 248.438 46.94C247.818 47.12 247.158 47.21 246.458 47.21C244.698 47.21 243.338 46.75 242.378 45.83C241.418 44.91 240.938 43.57 240.938 41.81V34.1H238.298V31.1H240.938V27.44H244.688V31.1H248.978V34.1H244.688V41.72C244.688 42.5 244.878 43.1 245.258 43.52C245.638 43.92 246.188 44.12 246.908 44.12C247.748 44.12 248.448 43.9 249.008 43.46L250.058 46.13ZM258.692 47.21C257.392 47.21 256.122 47.04 254.882 46.7C253.642 46.36 252.652 45.93 251.912 45.41L253.352 42.56C254.072 43.04 254.932 43.43 255.932 43.73C256.952 44.01 257.952 44.15 258.932 44.15C261.172 44.15 262.292 43.56 262.292 42.38C262.292 41.82 262.002 41.43 261.422 41.21C260.862 40.99 259.952 40.78 258.692 40.58C257.372 40.38 256.292 40.15 255.452 39.89C254.632 39.63 253.912 39.18 253.292 38.54C252.692 37.88 252.392 36.97 252.392 35.81C252.392 34.29 253.022 33.08 254.282 32.18C255.562 31.26 257.282 30.8 259.442 30.8C260.542 30.8 261.642 30.93 262.742 31.19C263.842 31.43 264.742 31.76 265.442 32.18L264.002 35.03C262.642 34.23 261.112 33.83 259.412 33.83C258.312 33.83 257.472 34 256.892 34.34C256.332 34.66 256.052 35.09 256.052 35.63C256.052 36.23 256.352 36.66 256.952 36.92C257.572 37.16 258.522 37.39 259.802 37.61C261.082 37.81 262.132 38.04 262.952 38.3C263.772 38.56 264.472 39 265.052 39.62C265.652 40.24 265.952 41.12 265.952 42.26C265.952 43.76 265.302 44.96 264.002 45.86C262.702 46.76 260.932 47.21 258.692 47.21Z" fill="black"/>
</svg>
