<svg width="216" height="55" viewBox="0 0 216 55" fill="none" xmlns="http://www.w3.org/2000/svg">
<circle cx="23.5435" cy="23.5435" r="23.5435" fill="#5115B3"/>
<circle cx="33.4566" cy="23.5435" r="23.5435" fill="#5115B3" fill-opacity="0.5"/>
<path d="M30.63 47.3C28.49 47.3 26.56 46.84 24.84 45.92C23.12 44.98 21.77 43.69 20.79 42.05C19.81 40.39 19.32 38.54 19.32 36.5C19.32 34.46 19.81 32.62 20.79 30.98C21.77 29.32 23.12 28.03 24.84 27.11C26.56 26.17 28.49 25.7 30.63 25.7C32.77 25.7 34.7 26.17 36.42 27.11C38.14 28.03 39.49 29.31 40.47 30.95C41.45 32.59 41.94 34.44 41.94 36.5C41.94 38.56 41.45 40.41 40.47 42.05C39.49 43.69 38.14 44.98 36.42 45.92C34.7 46.84 32.77 47.3 30.63 47.3ZM30.63 43.88C32.03 43.88 33.29 43.57 34.41 42.95C35.53 42.31 36.41 41.43 37.05 40.31C37.69 39.17 38.01 37.9 38.01 36.5C38.01 35.1 37.69 33.84 37.05 32.72C36.41 31.58 35.53 30.7 34.41 30.08C33.29 29.44 32.03 29.12 30.63 29.12C29.23 29.12 27.97 29.44 26.85 30.08C25.73 30.7 24.85 31.58 24.21 32.72C23.57 33.84 23.25 35.1 23.25 36.5C23.25 37.9 23.57 39.17 24.21 40.31C24.85 41.43 25.73 42.31 26.85 42.95C27.97 43.57 29.23 43.88 30.63 43.88Z" fill="white"/>
<path d="M61.8239 30.98V47H58.2539V44.96C57.6539 45.68 56.9039 46.24 56.0039 46.64C55.1039 47.02 54.1339 47.21 53.0939 47.21C50.9539 47.21 49.2639 46.62 48.0239 45.44C46.8039 44.24 46.1939 42.47 46.1939 40.13V30.98H49.9439V39.62C49.9439 41.06 50.2639 42.14 50.9039 42.86C51.5639 43.56 52.4939 43.91 53.6939 43.91C55.0339 43.91 56.0939 43.5 56.8739 42.68C57.6739 41.84 58.0739 40.64 58.0739 39.08V30.98H61.8239ZM70.9038 33.32C71.9838 31.64 73.8838 30.8 76.6038 30.8V34.37C76.2838 34.31 75.9938 34.28 75.7338 34.28C74.2738 34.28 73.1338 34.71 72.3138 35.57C71.4938 36.41 71.0838 37.63 71.0838 39.23V47H67.3338V30.98H70.9038V33.32ZM93.0525 47.3C91.7125 47.3 90.4725 47.04 89.3325 46.52C88.2125 45.98 87.2925 45.23 86.5725 44.27L88.7925 41.6C89.9525 43.2 91.3425 44 92.9625 44C95.1425 44 96.2325 42.71 96.2325 40.13V29.27H88.7625V26H100.133V39.92C100.133 42.38 99.5325 44.23 98.3325 45.47C97.1325 46.69 95.3725 47.3 93.0525 47.3ZM113.043 47.21C111.423 47.21 109.963 46.86 108.663 46.16C107.363 45.46 106.343 44.49 105.603 43.25C104.883 41.99 104.523 40.57 104.523 38.99C104.523 37.41 104.883 36 105.603 34.76C106.343 33.52 107.363 32.55 108.663 31.85C109.963 31.15 111.423 30.8 113.043 30.8C114.683 30.8 116.153 31.15 117.453 31.85C118.753 32.55 119.763 33.52 120.483 34.76C121.223 36 121.593 37.41 121.593 38.99C121.593 40.57 121.223 41.99 120.483 43.25C119.763 44.49 118.753 45.46 117.453 46.16C116.153 46.86 114.683 47.21 113.043 47.21ZM113.043 44C114.423 44 115.563 43.54 116.463 42.62C117.363 41.7 117.813 40.49 117.813 38.99C117.813 37.49 117.363 36.28 116.463 35.36C115.563 34.44 114.423 33.98 113.043 33.98C111.663 33.98 110.523 34.44 109.623 35.36C108.743 36.28 108.303 37.49 108.303 38.99C108.303 40.49 108.743 41.7 109.623 42.62C110.523 43.54 111.663 44 113.043 44ZM141.289 30.98V47H137.719V44.96C137.119 45.68 136.369 46.24 135.469 46.64C134.569 47.02 133.599 47.21 132.559 47.21C130.419 47.21 128.729 46.62 127.489 45.44C126.269 44.24 125.659 42.47 125.659 40.13V30.98H129.409V39.62C129.409 41.06 129.729 42.14 130.369 42.86C131.029 43.56 131.959 43.91 133.159 43.91C134.499 43.91 135.559 43.5 136.339 42.68C137.139 41.84 137.539 40.64 137.539 39.08V30.98H141.289ZM150.369 33.32C151.449 31.64 153.349 30.8 156.069 30.8V34.37C155.749 34.31 155.459 34.28 155.199 34.28C153.739 34.28 152.599 34.71 151.779 35.57C150.959 36.41 150.549 37.63 150.549 39.23V47H146.799V30.98H150.369V33.32ZM168.94 30.8C170.96 30.8 172.58 31.39 173.8 32.57C175.02 33.75 175.63 35.5 175.63 37.82V47H171.88V38.3C171.88 36.9 171.55 35.85 170.89 35.15C170.23 34.43 169.29 34.07 168.07 34.07C166.69 34.07 165.6 34.49 164.8 35.33C164 36.15 163.6 37.34 163.6 38.9V47H159.85V30.98H163.42V33.05C164.04 32.31 164.82 31.75 165.76 31.37C166.7 30.99 167.76 30.8 168.94 30.8ZM196.193 39.08C196.193 39.34 196.173 39.71 196.133 40.19H183.563C183.783 41.37 184.353 42.31 185.273 43.01C186.213 43.69 187.373 44.03 188.753 44.03C190.513 44.03 191.963 43.45 193.103 42.29L195.113 44.6C194.393 45.46 193.483 46.11 192.383 46.55C191.283 46.99 190.043 47.21 188.663 47.21C186.903 47.21 185.353 46.86 184.013 46.16C182.673 45.46 181.633 44.49 180.893 43.25C180.173 41.99 179.813 40.57 179.813 38.99C179.813 37.43 180.163 36.03 180.863 34.79C181.583 33.53 182.573 32.55 183.833 31.85C185.093 31.15 186.513 30.8 188.093 30.8C189.653 30.8 191.043 31.15 192.263 31.85C193.503 32.53 194.463 33.5 195.143 34.76C195.843 36 196.193 37.44 196.193 39.08ZM188.093 33.8C186.893 33.8 185.873 34.16 185.033 34.88C184.213 35.58 183.713 36.52 183.533 37.7H192.623C192.463 36.54 191.973 35.6 191.153 34.88C190.333 34.16 189.313 33.8 188.093 33.8ZM215.103 30.98L207.603 48.29C206.903 50.03 206.053 51.25 205.053 51.95C204.053 52.67 202.843 53.03 201.423 53.03C200.623 53.03 199.833 52.9 199.053 52.64C198.273 52.38 197.633 52.02 197.133 51.56L198.633 48.8C198.993 49.14 199.413 49.41 199.893 49.61C200.393 49.81 200.893 49.91 201.393 49.91C202.053 49.91 202.593 49.74 203.013 49.4C203.453 49.06 203.853 48.49 204.213 47.69L204.483 47.06L197.493 30.98H201.393L206.433 42.83L211.503 30.98H215.103Z" fill="black"/>
</svg>
