<svg width="139" height="49" viewBox="0 0 139 49" fill="none" xmlns="http://www.w3.org/2000/svg">
<ellipse cx="23.5435" cy="21.4032" rx="23.5435" ry="21.4032" fill="#5115B3"/>
<ellipse cx="33.4566" cy="21.4032" rx="23.5435" ry="21.4032" fill="#5115B3" fill-opacity="0.5"/>
<path d="M34.46 21C36.28 21 37.86 21.3 39.2 21.9C40.56 22.5 41.6 23.36 42.32 24.48C43.04 25.6 43.4 26.93 43.4 28.47C43.4 29.99 43.04 31.32 42.32 32.46C41.6 33.58 40.56 34.44 39.2 35.04C37.86 35.64 36.28 35.94 34.46 35.94H29.72V42H25.82V21H34.46ZM34.28 32.64C35.98 32.64 37.27 32.28 38.15 31.56C39.03 30.84 39.47 29.81 39.47 28.47C39.47 27.13 39.03 26.1 38.15 25.38C37.27 24.66 35.98 24.3 34.28 24.3H29.72V32.64H34.28Z" fill="white"/>
<path d="M50.9581 28.32C52.0381 26.64 53.9381 25.8 56.6581 25.8V29.37C56.3381 29.31 56.0481 29.28 55.7881 29.28C54.3281 29.28 53.1881 29.71 52.3681 30.57C51.5481 31.41 51.1381 32.63 51.1381 34.23V42H47.3881V25.98H50.9581V28.32ZM60.4393 25.98H64.1893V42H60.4393V25.98ZM62.3293 23.34C61.6493 23.34 61.0793 23.13 60.6193 22.71C60.1593 22.27 59.9293 21.73 59.9293 21.09C59.9293 20.45 60.1593 19.92 60.6193 19.5C61.0793 19.06 61.6493 18.84 62.3293 18.84C63.0093 18.84 63.5793 19.05 64.0393 19.47C64.4993 19.87 64.7293 20.38 64.7293 21C64.7293 21.66 64.4993 22.22 64.0393 22.68C63.5993 23.12 63.0293 23.34 62.3293 23.34ZM77.0612 42.21C75.4012 42.21 73.9112 41.86 72.5912 41.16C71.2712 40.46 70.2412 39.49 69.5012 38.25C68.7612 36.99 68.3912 35.57 68.3912 33.99C68.3912 32.41 68.7612 31 69.5012 29.76C70.2412 28.52 71.2612 27.55 72.5612 26.85C73.8812 26.15 75.3812 25.8 77.0612 25.8C78.6412 25.8 80.0212 26.12 81.2012 26.76C82.4012 27.4 83.3012 28.32 83.9012 29.52L81.0212 31.2C80.5612 30.46 79.9812 29.91 79.2812 29.55C78.6012 29.17 77.8512 28.98 77.0312 28.98C75.6312 28.98 74.4712 29.44 73.5512 30.36C72.6312 31.26 72.1712 32.47 72.1712 33.99C72.1712 35.51 72.6212 36.73 73.5212 37.65C74.4412 38.55 75.6112 39 77.0312 39C77.8512 39 78.6012 38.82 79.2812 38.46C79.9812 38.08 80.5612 37.52 81.0212 36.78L83.9012 38.46C83.2812 39.66 82.3712 40.59 81.1712 41.25C79.9912 41.89 78.6212 42.21 77.0612 42.21ZM87.7428 25.98H91.4928V42H87.7428V25.98ZM89.6328 23.34C88.9528 23.34 88.3828 23.13 87.9228 22.71C87.4628 22.27 87.2328 21.73 87.2328 21.09C87.2328 20.45 87.4628 19.92 87.9228 19.5C88.3828 19.06 88.9528 18.84 89.6328 18.84C90.3128 18.84 90.8828 19.05 91.3428 19.47C91.8028 19.87 92.0328 20.38 92.0328 21C92.0328 21.66 91.8028 22.22 91.3428 22.68C90.9028 23.12 90.3328 23.34 89.6328 23.34ZM106.105 25.8C108.125 25.8 109.745 26.39 110.965 27.57C112.185 28.75 112.795 30.5 112.795 32.82V42H109.045V33.3C109.045 31.9 108.715 30.85 108.055 30.15C107.395 29.43 106.455 29.07 105.235 29.07C103.855 29.07 102.765 29.49 101.965 30.33C101.165 31.15 100.765 32.34 100.765 33.9V42H97.0147V25.98H100.585V28.05C101.205 27.31 101.985 26.75 102.925 26.37C103.865 25.99 104.925 25.8 106.105 25.8ZM134.198 25.98V39.57C134.198 45.21 131.318 48.03 125.558 48.03C124.018 48.03 122.558 47.83 121.178 47.43C119.798 47.05 118.658 46.49 117.758 45.75L119.438 42.93C120.138 43.51 121.018 43.97 122.078 44.31C123.158 44.67 124.248 44.85 125.348 44.85C127.108 44.85 128.398 44.45 129.218 43.65C130.038 42.85 130.448 41.63 130.448 39.99V39.15C129.808 39.85 129.028 40.38 128.108 40.74C127.188 41.1 126.178 41.28 125.078 41.28C123.558 41.28 122.178 40.96 120.938 40.32C119.718 39.66 118.748 38.74 118.028 37.56C117.328 36.38 116.978 35.03 116.978 33.51C116.978 31.99 117.328 30.65 118.028 29.49C118.748 28.31 119.718 27.4 120.938 26.76C122.178 26.12 123.558 25.8 125.078 25.8C126.238 25.8 127.288 25.99 128.228 26.37C129.188 26.75 129.988 27.33 130.628 28.11V25.98H134.198ZM125.648 38.1C127.068 38.1 128.228 37.68 129.128 36.84C130.048 35.98 130.508 34.87 130.508 33.51C130.508 32.17 130.048 31.08 129.128 30.24C128.228 29.4 127.068 28.98 125.648 28.98C124.208 28.98 123.028 29.4 122.108 30.24C121.208 31.08 120.758 32.17 120.758 33.51C120.758 34.87 121.208 35.98 122.108 36.84C123.028 37.68 124.208 38.1 125.648 38.1Z" fill="black"/>
</svg>
