<svg width="150" height="50" viewBox="0 0 150 50" fill="none" xmlns="http://www.w3.org/2000/svg">
<ellipse cx="23.5435" cy="21.4032" rx="23.5435" ry="21.4032" fill="#5115B3"/>
<ellipse cx="33.4566" cy="21.4032" rx="23.5435" ry="21.4032" fill="#5115B3" fill-opacity="0.5"/>
<path d="M34.56 45L30.27 38.85C30.09 38.87 29.82 38.88 29.46 38.88H24.72V45H20.82V24H29.46C31.28 24 32.86 24.3 34.2 24.9C35.56 25.5 36.6 26.36 37.32 27.48C38.04 28.6 38.4 29.93 38.4 31.47C38.4 33.05 38.01 34.41 37.23 35.55C36.47 36.69 35.37 37.54 33.93 38.1L38.76 45H34.56ZM34.47 31.47C34.47 30.13 34.03 29.1 33.15 28.38C32.27 27.66 30.98 27.3 29.28 27.3H24.72V35.67H29.28C30.98 35.67 32.27 35.31 33.15 34.59C34.03 33.85 34.47 32.81 34.47 31.47Z" fill="white"/>
<path d="M58.0634 37.08C58.0634 37.34 58.0434 37.71 58.0034 38.19H45.4334C45.6534 39.37 46.2234 40.31 47.1434 41.01C48.0834 41.69 49.2434 42.03 50.6234 42.03C52.3834 42.03 53.8334 41.45 54.9734 40.29L56.9834 42.6C56.2634 43.46 55.3534 44.11 54.2534 44.55C53.1534 44.99 51.9134 45.21 50.5334 45.21C48.7734 45.21 47.2234 44.86 45.8834 44.16C44.5434 43.46 43.5034 42.49 42.7634 41.25C42.0434 39.99 41.6834 38.57 41.6834 36.99C41.6834 35.43 42.0334 34.03 42.7334 32.79C43.4534 31.53 44.4434 30.55 45.7034 29.85C46.9634 29.15 48.3834 28.8 49.9634 28.8C51.5234 28.8 52.9134 29.15 54.1334 29.85C55.3734 30.53 56.3334 31.5 57.0134 32.76C57.7134 34 58.0634 35.44 58.0634 37.08ZM49.9634 31.8C48.7634 31.8 47.7434 32.16 46.9034 32.88C46.0834 33.58 45.5834 34.52 45.4034 35.7H54.4934C54.3334 34.54 53.8434 33.6 53.0234 32.88C52.2034 32.16 51.1834 31.8 49.9634 31.8ZM76.9725 28.98L70.1025 45H66.2325L59.3625 28.98H63.2625L68.2425 40.86L73.3725 28.98H76.9725ZM79.9162 28.98H83.6662V45H79.9162V28.98ZM81.8062 26.34C81.1262 26.34 80.5562 26.13 80.0962 25.71C79.6362 25.27 79.4062 24.73 79.4062 24.09C79.4062 23.45 79.6362 22.92 80.0962 22.5C80.5562 22.06 81.1262 21.84 81.8062 21.84C82.4862 21.84 83.0562 22.05 83.5162 22.47C83.9762 22.87 84.2062 23.38 84.2062 24C84.2062 24.66 83.9762 25.22 83.5162 25.68C83.0762 26.12 82.5062 26.34 81.8062 26.34ZM104.248 37.08C104.248 37.34 104.228 37.71 104.188 38.19H91.6181C91.8381 39.37 92.4081 40.31 93.3281 41.01C94.2681 41.69 95.4281 42.03 96.8081 42.03C98.5681 42.03 100.018 41.45 101.158 40.29L103.168 42.6C102.448 43.46 101.538 44.11 100.438 44.55C99.3381 44.99 98.0981 45.21 96.7181 45.21C94.9581 45.21 93.4081 44.86 92.0681 44.16C90.7281 43.46 89.6881 42.49 88.9481 41.25C88.2281 39.99 87.8681 38.57 87.8681 36.99C87.8681 35.43 88.2181 34.03 88.9181 32.79C89.6381 31.53 90.6281 30.55 91.8881 29.85C93.1481 29.15 94.5681 28.8 96.1481 28.8C97.7081 28.8 99.0981 29.15 100.318 29.85C101.558 30.53 102.518 31.5 103.198 32.76C103.898 34 104.248 35.44 104.248 37.08ZM96.1481 31.8C94.9481 31.8 93.9281 32.16 93.0881 32.88C92.2681 33.58 91.7681 34.52 91.5881 35.7H100.678C100.518 34.54 100.028 33.6 99.2081 32.88C98.3881 32.16 97.3681 31.8 96.1481 31.8ZM133.147 28.98L127.237 45H123.637L119.497 33.96L115.297 45H111.697L105.817 28.98H109.357L113.587 40.8L117.997 28.98H121.147L125.467 40.86L129.817 28.98H133.147ZM141.071 45.21C139.771 45.21 138.501 45.04 137.261 44.7C136.021 44.36 135.031 43.93 134.291 43.41L135.731 40.56C136.451 41.04 137.311 41.43 138.311 41.73C139.331 42.01 140.331 42.15 141.311 42.15C143.551 42.15 144.671 41.56 144.671 40.38C144.671 39.82 144.381 39.43 143.801 39.21C143.241 38.99 142.331 38.78 141.071 38.58C139.751 38.38 138.671 38.15 137.831 37.89C137.011 37.63 136.291 37.18 135.671 36.54C135.071 35.88 134.771 34.97 134.771 33.81C134.771 32.29 135.401 31.08 136.661 30.18C137.941 29.26 139.661 28.8 141.821 28.8C142.921 28.8 144.021 28.93 145.121 29.19C146.221 29.43 147.121 29.76 147.821 30.18L146.381 33.03C145.021 32.23 143.491 31.83 141.791 31.83C140.691 31.83 139.851 32 139.271 32.34C138.711 32.66 138.431 33.09 138.431 33.63C138.431 34.23 138.731 34.66 139.331 34.92C139.951 35.16 140.901 35.39 142.181 35.61C143.461 35.81 144.511 36.04 145.331 36.3C146.151 36.56 146.851 37 147.431 37.62C148.031 38.24 148.331 39.12 148.331 40.26C148.331 41.76 147.681 42.96 146.381 43.86C145.081 44.76 143.311 45.21 141.071 45.21Z" fill="black"/>
</svg>
