<svg width="232" height="50" viewBox="0 0 232 50" fill="none" xmlns="http://www.w3.org/2000/svg">
<ellipse cx="23.5435" cy="21.4032" rx="23.5435" ry="21.4032" fill="#5115B3"/>
<ellipse cx="33.4566" cy="21.4032" rx="23.5435" ry="21.4032" fill="#5115B3" fill-opacity="0.5"/>
<path d="M30.63 45.3C28.49 45.3 26.56 44.84 24.84 43.92C23.12 42.98 21.77 41.69 20.79 40.05C19.81 38.39 19.32 36.54 19.32 34.5C19.32 32.46 19.81 30.62 20.79 28.98C21.77 27.32 23.12 26.03 24.84 25.11C26.56 24.17 28.49 23.7 30.63 23.7C32.77 23.7 34.7 24.17 36.42 25.11C38.14 26.03 39.49 27.31 40.47 28.95C41.45 30.59 41.94 32.44 41.94 34.5C41.94 36.56 41.45 38.41 40.47 40.05C39.49 41.69 38.14 42.98 36.42 43.92C34.7 44.84 32.77 45.3 30.63 45.3ZM30.63 41.88C32.03 41.88 33.29 41.57 34.41 40.95C35.53 40.31 36.41 39.43 37.05 38.31C37.69 37.17 38.01 35.9 38.01 34.5C38.01 33.1 37.69 31.84 37.05 30.72C36.41 29.58 35.53 28.7 34.41 28.08C33.29 27.44 32.03 27.12 30.63 27.12C29.23 27.12 27.97 27.44 26.85 28.08C25.73 28.7 24.85 29.58 24.21 30.72C23.57 31.84 23.25 33.1 23.25 34.5C23.25 35.9 23.57 37.17 24.21 38.31C24.85 39.43 25.73 40.31 26.85 40.95C27.97 41.57 29.23 41.88 30.63 41.88Z" fill="white"/>
<path d="M61.8239 28.98V45H58.2539V42.96C57.6539 43.68 56.9039 44.24 56.0039 44.64C55.1039 45.02 54.1339 45.21 53.0939 45.21C50.9539 45.21 49.2639 44.62 48.0239 43.44C46.8039 42.24 46.1939 40.47 46.1939 38.13V28.98H49.9439V37.62C49.9439 39.06 50.2639 40.14 50.9039 40.86C51.5639 41.56 52.4939 41.91 53.6939 41.91C55.0339 41.91 56.0939 41.5 56.8739 40.68C57.6739 39.84 58.0739 38.64 58.0739 37.08V28.98H61.8239ZM70.9038 31.32C71.9838 29.64 73.8838 28.8 76.6038 28.8V32.37C76.2838 32.31 75.9938 32.28 75.7338 32.28C74.2738 32.28 73.1338 32.71 72.3138 33.57C71.4938 34.41 71.0838 35.63 71.0838 37.23V45H67.3338V28.98H70.9038V31.32ZM96.2925 45.3C94.6725 45.3 93.1025 45.07 91.5825 44.61C90.0825 44.15 88.8925 43.54 88.0125 42.78L89.3625 39.75C90.2225 40.43 91.2725 40.99 92.5125 41.43C93.7725 41.85 95.0325 42.06 96.2925 42.06C97.8525 42.06 99.0125 41.81 99.7725 41.31C100.553 40.81 100.943 40.15 100.943 39.33C100.943 38.73 100.723 38.24 100.283 37.86C99.8625 37.46 99.3225 37.15 98.6625 36.93C98.0025 36.71 97.1025 36.46 95.9625 36.18C94.3625 35.8 93.0625 35.42 92.0625 35.04C91.0825 34.66 90.2325 34.07 89.5125 33.27C88.8125 32.45 88.4625 31.35 88.4625 29.97C88.4625 28.81 88.7725 27.76 89.3925 26.82C90.0325 25.86 90.9825 25.1 92.2425 24.54C93.5225 23.98 95.0825 23.7 96.9225 23.7C98.2025 23.7 99.4625 23.86 100.703 24.18C101.943 24.5 103.013 24.96 103.913 25.56L102.683 28.59C101.763 28.05 100.803 27.64 99.8025 27.36C98.8025 27.08 97.8325 26.94 96.8925 26.94C95.3525 26.94 94.2025 27.2 93.4425 27.72C92.7025 28.24 92.3325 28.93 92.3325 29.79C92.3325 30.39 92.5425 30.88 92.9625 31.26C93.4025 31.64 93.9525 31.94 94.6125 32.16C95.2725 32.38 96.1725 32.63 97.3125 32.91C98.8725 33.27 100.153 33.65 101.153 34.05C102.153 34.43 103.003 35.02 103.703 35.82C104.423 36.62 104.783 37.7 104.783 39.06C104.783 40.22 104.463 41.27 103.823 42.21C103.203 43.15 102.253 43.9 100.973 44.46C99.6925 45.02 98.1325 45.3 96.2925 45.3ZM123.95 37.08C123.95 37.34 123.93 37.71 123.89 38.19H111.32C111.54 39.37 112.11 40.31 113.03 41.01C113.97 41.69 115.13 42.03 116.51 42.03C118.27 42.03 119.72 41.45 120.86 40.29L122.87 42.6C122.15 43.46 121.24 44.11 120.14 44.55C119.04 44.99 117.8 45.21 116.42 45.21C114.66 45.21 113.11 44.86 111.77 44.16C110.43 43.46 109.39 42.49 108.65 41.25C107.93 39.99 107.57 38.57 107.57 36.99C107.57 35.43 107.92 34.03 108.62 32.79C109.34 31.53 110.33 30.55 111.59 29.85C112.85 29.15 114.27 28.8 115.85 28.8C117.41 28.8 118.8 29.15 120.02 29.85C121.26 30.53 122.22 31.5 122.9 32.76C123.6 34 123.95 35.44 123.95 37.08ZM115.85 31.8C114.65 31.8 113.63 32.16 112.79 32.88C111.97 33.58 111.47 34.52 111.29 35.7H120.38C120.22 34.54 119.73 33.6 118.91 32.88C118.09 32.16 117.07 31.8 115.85 31.8ZM131.722 31.32C132.802 29.64 134.702 28.8 137.422 28.8V32.37C137.102 32.31 136.812 32.28 136.552 32.28C135.092 32.28 133.952 32.71 133.132 33.57C132.312 34.41 131.902 35.63 131.902 37.23V45H128.152V28.98H131.722V31.32ZM156.789 28.98L149.919 45H146.049L139.179 28.98H143.079L148.059 40.86L153.189 28.98H156.789ZM159.733 28.98H163.483V45H159.733V28.98ZM161.623 26.34C160.943 26.34 160.373 26.13 159.913 25.71C159.453 25.27 159.223 24.73 159.223 24.09C159.223 23.45 159.453 22.92 159.913 22.5C160.373 22.06 160.943 21.84 161.623 21.84C162.303 21.84 162.873 22.05 163.333 22.47C163.793 22.87 164.023 23.38 164.023 24C164.023 24.66 163.793 25.22 163.333 25.68C162.893 26.12 162.323 26.34 161.623 26.34ZM176.355 45.21C174.695 45.21 173.205 44.86 171.885 44.16C170.565 43.46 169.535 42.49 168.795 41.25C168.055 39.99 167.685 38.57 167.685 36.99C167.685 35.41 168.055 34 168.795 32.76C169.535 31.52 170.555 30.55 171.855 29.85C173.175 29.15 174.675 28.8 176.355 28.8C177.935 28.8 179.315 29.12 180.495 29.76C181.695 30.4 182.595 31.32 183.195 32.52L180.315 34.2C179.855 33.46 179.275 32.91 178.575 32.55C177.895 32.17 177.145 31.98 176.325 31.98C174.925 31.98 173.765 32.44 172.845 33.36C171.925 34.26 171.465 35.47 171.465 36.99C171.465 38.51 171.915 39.73 172.815 40.65C173.735 41.55 174.905 42 176.325 42C177.145 42 177.895 41.82 178.575 41.46C179.275 41.08 179.855 40.52 180.315 39.78L183.195 41.46C182.575 42.66 181.665 43.59 180.465 44.25C179.285 44.89 177.915 45.21 176.355 45.21ZM201.862 37.08C201.862 37.34 201.842 37.71 201.802 38.19H189.232C189.452 39.37 190.022 40.31 190.942 41.01C191.882 41.69 193.042 42.03 194.422 42.03C196.182 42.03 197.632 41.45 198.772 40.29L200.782 42.6C200.062 43.46 199.152 44.11 198.052 44.55C196.952 44.99 195.712 45.21 194.332 45.21C192.572 45.21 191.022 44.86 189.682 44.16C188.342 43.46 187.302 42.49 186.562 41.25C185.842 39.99 185.482 38.57 185.482 36.99C185.482 35.43 185.832 34.03 186.532 32.79C187.252 31.53 188.242 30.55 189.502 29.85C190.762 29.15 192.182 28.8 193.762 28.8C195.322 28.8 196.712 29.15 197.932 29.85C199.172 30.53 200.132 31.5 200.812 32.76C201.512 34 201.862 35.44 201.862 37.08ZM193.762 31.8C192.562 31.8 191.542 32.16 190.702 32.88C189.882 33.58 189.382 34.52 189.202 35.7H198.292C198.132 34.54 197.642 33.6 196.822 32.88C196.002 32.16 194.982 31.8 193.762 31.8ZM211.014 45.21C209.714 45.21 208.444 45.04 207.204 44.7C205.964 44.36 204.974 43.93 204.234 43.41L205.674 40.56C206.394 41.04 207.254 41.43 208.254 41.73C209.274 42.01 210.274 42.15 211.254 42.15C213.494 42.15 214.614 41.56 214.614 40.38C214.614 39.82 214.324 39.43 213.744 39.21C213.184 38.99 212.274 38.78 211.014 38.58C209.694 38.38 208.614 38.15 207.774 37.89C206.954 37.63 206.234 37.18 205.614 36.54C205.014 35.88 204.714 34.97 204.714 33.81C204.714 32.29 205.344 31.08 206.604 30.18C207.884 29.26 209.604 28.8 211.764 28.8C212.864 28.8 213.964 28.93 215.064 29.19C216.164 29.43 217.064 29.76 217.764 30.18L216.324 33.03C214.964 32.23 213.434 31.83 211.734 31.83C210.634 31.83 209.794 32 209.214 32.34C208.654 32.66 208.374 33.09 208.374 33.63C208.374 34.23 208.674 34.66 209.274 34.92C209.894 35.16 210.844 35.39 212.124 35.61C213.404 35.81 214.454 36.04 215.274 36.3C216.094 36.56 216.794 37 217.374 37.62C217.974 38.24 218.274 39.12 218.274 40.26C218.274 41.76 217.624 42.96 216.324 43.86C215.024 44.76 213.254 45.21 211.014 45.21Z" fill="black"/>
</svg>
