<svg width="224" height="55" viewBox="0 0 224 55" fill="none" xmlns="http://www.w3.org/2000/svg">
<circle cx="23.5435" cy="23.5435" r="23.5435" fill="#5115B3"/>
<circle cx="33.4566" cy="23.5435" r="23.5435" fill="#5115B3" fill-opacity="0.5"/>
<path d="M23.33 47.3C21.71 47.3 20.14 47.07 18.62 46.61C17.12 46.15 15.93 45.54 15.05 44.78L16.4 41.75C17.26 42.43 18.31 42.99 19.55 43.43C20.81 43.85 22.07 44.06 23.33 44.06C24.89 44.06 26.05 43.81 26.81 43.31C27.59 42.81 27.98 42.15 27.98 41.33C27.98 40.73 27.76 40.24 27.32 39.86C26.9 39.46 26.36 39.15 25.7 38.93C25.04 38.71 24.14 38.46 23 38.18C21.4 37.8 20.1 37.42 19.1 37.04C18.12 36.66 17.27 36.07 16.55 35.27C15.85 34.45 15.5 33.35 15.5 31.97C15.5 30.81 15.81 29.76 16.43 28.82C17.07 27.86 18.02 27.1 19.28 26.54C20.56 25.98 22.12 25.7 23.96 25.7C25.24 25.7 26.5 25.86 27.74 26.18C28.98 26.5 30.05 26.96 30.95 27.56L29.72 30.59C28.8 30.05 27.84 29.64 26.84 29.36C25.84 29.08 24.87 28.94 23.93 28.94C22.39 28.94 21.24 29.2 20.48 29.72C19.74 30.24 19.37 30.93 19.37 31.79C19.37 32.39 19.58 32.88 20 33.26C20.44 33.64 20.99 33.94 21.65 34.16C22.31 34.38 23.21 34.63 24.35 34.91C25.91 35.27 27.19 35.65 28.19 36.05C29.19 36.43 30.04 37.02 30.74 37.82C31.46 38.62 31.82 39.7 31.82 41.06C31.82 42.22 31.5 43.27 30.86 44.21C30.24 45.15 29.29 45.9 28.01 46.46C26.73 47.02 25.17 47.3 23.33 47.3Z" fill="white"/>
<path d="M45.5572 46.13C45.1172 46.49 44.5772 46.76 43.9372 46.94C43.3172 47.12 42.6572 47.21 41.9572 47.21C40.1972 47.21 38.8372 46.75 37.8772 45.83C36.9172 44.91 36.4372 43.57 36.4372 41.81V34.1H33.7972V31.1H36.4372V27.44H40.1872V31.1H44.4772V34.1H40.1872V41.72C40.1872 42.5 40.3772 43.1 40.7572 43.52C41.1372 43.92 41.6872 44.12 42.4072 44.12C43.2472 44.12 43.9472 43.9 44.5072 43.46L45.5572 46.13ZM55.362 30.8C57.722 30.8 59.522 31.37 60.762 32.51C62.022 33.63 62.652 35.33 62.652 37.61V47H59.112V45.05C58.652 45.75 57.992 46.29 57.132 46.67C56.292 47.03 55.272 47.21 54.072 47.21C52.872 47.21 51.822 47.01 50.922 46.61C50.022 46.19 49.322 45.62 48.822 44.9C48.342 44.16 48.102 43.33 48.102 42.41C48.102 40.97 48.632 39.82 49.692 38.96C50.772 38.08 52.462 37.64 54.762 37.64H58.902V37.4C58.902 36.28 58.562 35.42 57.882 34.82C57.222 34.22 56.232 33.92 54.912 33.92C54.012 33.92 53.122 34.06 52.242 34.34C51.382 34.62 50.652 35.01 50.052 35.51L48.582 32.78C49.422 32.14 50.432 31.65 51.612 31.31C52.792 30.97 54.042 30.8 55.362 30.8ZM54.852 44.48C55.792 44.48 56.622 44.27 57.342 43.85C58.082 43.41 58.602 42.79 58.902 41.99V40.13H55.032C52.872 40.13 51.792 40.84 51.792 42.26C51.792 42.94 52.062 43.48 52.602 43.88C53.142 44.28 53.892 44.48 54.852 44.48ZM82.7717 30.98L75.2717 48.29C74.5717 50.03 73.7217 51.25 72.7217 51.95C71.7217 52.67 70.5117 53.03 69.0917 53.03C68.2917 53.03 67.5017 52.9 66.7217 52.64C65.9417 52.38 65.3017 52.02 64.8017 51.56L66.3017 48.8C66.6617 49.14 67.0817 49.41 67.5617 49.61C68.0617 49.81 68.5617 49.91 69.0617 49.91C69.7217 49.91 70.2617 49.74 70.6817 49.4C71.1217 49.06 71.5217 48.49 71.8817 47.69L72.1517 47.06L65.1617 30.98H69.0617L74.1017 42.83L79.1717 30.98H82.7717ZM94.6065 30.98H98.3565V47H94.6065V30.98ZM96.4965 28.34C95.8165 28.34 95.2465 28.13 94.7865 27.71C94.3265 27.27 94.0965 26.73 94.0965 26.09C94.0965 25.45 94.3265 24.92 94.7865 24.5C95.2465 24.06 95.8165 23.84 96.4965 23.84C97.1765 23.84 97.7465 24.05 98.2065 24.47C98.6665 24.87 98.8965 25.38 98.8965 26C98.8965 26.66 98.6665 27.22 98.2065 27.68C97.7665 28.12 97.1965 28.34 96.4965 28.34ZM112.968 30.8C114.988 30.8 116.608 31.39 117.828 32.57C119.048 33.75 119.658 35.5 119.658 37.82V47H115.908V38.3C115.908 36.9 115.578 35.85 114.918 35.15C114.258 34.43 113.318 34.07 112.098 34.07C110.718 34.07 109.628 34.49 108.828 35.33C108.028 36.15 107.628 37.34 107.628 38.9V47H103.878V30.98H107.448V33.05C108.068 32.31 108.848 31.75 109.788 31.37C110.728 30.99 111.788 30.8 112.968 30.8ZM143.536 46.13C143.096 46.49 142.556 46.76 141.916 46.94C141.296 47.12 140.636 47.21 139.936 47.21C138.176 47.21 136.816 46.75 135.856 45.83C134.896 44.91 134.416 43.57 134.416 41.81V34.1H131.776V31.1H134.416V27.44H138.166V31.1H142.456V34.1H138.166V41.72C138.166 42.5 138.356 43.1 138.736 43.52C139.116 43.92 139.666 44.12 140.386 44.12C141.226 44.12 141.926 43.9 142.486 43.46L143.536 46.13ZM153.894 47.21C152.274 47.21 150.814 46.86 149.514 46.16C148.214 45.46 147.194 44.49 146.454 43.25C145.734 41.99 145.374 40.57 145.374 38.99C145.374 37.41 145.734 36 146.454 34.76C147.194 33.52 148.214 32.55 149.514 31.85C150.814 31.15 152.274 30.8 153.894 30.8C155.534 30.8 157.004 31.15 158.304 31.85C159.604 32.55 160.614 33.52 161.334 34.76C162.074 36 162.444 37.41 162.444 38.99C162.444 40.57 162.074 41.99 161.334 43.25C160.614 44.49 159.604 45.46 158.304 46.16C157.004 46.86 155.534 47.21 153.894 47.21ZM153.894 44C155.274 44 156.414 43.54 157.314 42.62C158.214 41.7 158.664 40.49 158.664 38.99C158.664 37.49 158.214 36.28 157.314 35.36C156.414 34.44 155.274 33.98 153.894 33.98C152.514 33.98 151.374 34.44 150.474 35.36C149.594 36.28 149.154 37.49 149.154 38.99C149.154 40.49 149.594 41.7 150.474 42.62C151.374 43.54 152.514 44 153.894 44ZM182.14 30.98V47H178.57V44.96C177.97 45.68 177.22 46.24 176.32 46.64C175.42 47.02 174.45 47.21 173.41 47.21C171.27 47.21 169.58 46.62 168.34 45.44C167.12 44.24 166.51 42.47 166.51 40.13V30.98H170.26V39.62C170.26 41.06 170.58 42.14 171.22 42.86C171.88 43.56 172.81 43.91 174.01 43.91C175.35 43.91 176.41 43.5 177.19 42.68C177.99 41.84 178.39 40.64 178.39 39.08V30.98H182.14ZM195 47.21C193.34 47.21 191.85 46.86 190.53 46.16C189.21 45.46 188.18 44.49 187.44 43.25C186.7 41.99 186.33 40.57 186.33 38.99C186.33 37.41 186.7 36 187.44 34.76C188.18 33.52 189.2 32.55 190.5 31.85C191.82 31.15 193.32 30.8 195 30.8C196.58 30.8 197.96 31.12 199.14 31.76C200.34 32.4 201.24 33.32 201.84 34.52L198.96 36.2C198.5 35.46 197.92 34.91 197.22 34.55C196.54 34.17 195.79 33.98 194.97 33.98C193.57 33.98 192.41 34.44 191.49 35.36C190.57 36.26 190.11 37.47 190.11 38.99C190.11 40.51 190.56 41.73 191.46 42.65C192.38 43.55 193.55 44 194.97 44C195.79 44 196.54 43.82 197.22 43.46C197.92 43.08 198.5 42.52 198.96 41.78L201.84 43.46C201.22 44.66 200.31 45.59 199.11 46.25C197.93 46.89 196.56 47.21 195 47.21ZM214.625 30.8C216.645 30.8 218.265 31.39 219.485 32.57C220.705 33.75 221.315 35.5 221.315 37.82V47H217.565V38.3C217.565 36.9 217.235 35.85 216.575 35.15C215.915 34.43 214.975 34.07 213.755 34.07C212.375 34.07 211.285 34.49 210.485 35.33C209.685 36.15 209.285 37.34 209.285 38.9V47H205.535V24.74H209.285V32.84C209.905 32.18 210.665 31.68 211.565 31.34C212.485 30.98 213.505 30.8 214.625 30.8Z" fill="black"/>
</svg>
