<svg width="245" height="54" viewBox="0 0 245 54" fill="none" xmlns="http://www.w3.org/2000/svg">
<circle cx="23.5435" cy="23.5435" r="23.5435" fill="#5115B3"/>
<circle cx="33.4566" cy="23.5435" r="23.5435" fill="#5115B3" fill-opacity="0.5"/>
<path d="M19.77 46L12.81 25H16.86L23.07 43.99H21.06L27.51 25H31.11L37.38 43.99H35.43L41.79 25H45.51L38.55 46H34.41L28.68 28.87H29.76L23.94 46H19.77Z" fill="white"/>
<path d="M58.4566 29.8C59.7366 29.8 60.8766 30.05 61.8766 30.55C62.8966 31.05 63.6966 31.82 64.2766 32.86C64.8566 33.88 65.1466 35.2 65.1466 36.82V46H61.3966V37.3C61.3966 35.88 61.0566 34.82 60.3766 34.12C59.7166 33.42 58.7866 33.07 57.5866 33.07C56.7066 33.07 55.9266 33.25 55.2466 33.61C54.5666 33.97 54.0366 34.51 53.6566 35.23C53.2966 35.93 53.1166 36.82 53.1166 37.9V46H49.3666V23.74H53.1166V34.3L52.3066 32.98C52.8666 31.96 53.6766 31.18 54.7366 30.64C55.8166 30.08 57.0566 29.8 58.4566 29.8ZM80.3738 46V42.76L80.1638 42.07V36.4C80.1638 35.3 79.8338 34.45 79.1738 33.85C78.5138 33.23 77.5138 32.92 76.1738 32.92C75.2738 32.92 74.3838 33.06 73.5038 33.34C72.6438 33.62 71.9138 34.01 71.3138 34.51L69.8438 31.78C70.7038 31.12 71.7238 30.63 72.9038 30.31C74.1038 29.97 75.3438 29.8 76.6238 29.8C78.9438 29.8 80.7338 30.36 81.9938 31.48C83.2738 32.58 83.9138 34.29 83.9138 36.61V46H80.3738ZM75.3338 46.21C74.1338 46.21 73.0838 46.01 72.1838 45.61C71.2838 45.19 70.5838 44.62 70.0838 43.9C69.6038 43.16 69.3638 42.33 69.3638 41.41C69.3638 40.51 69.5738 39.7 69.9938 38.98C70.4338 38.26 71.1438 37.69 72.1238 37.27C73.1038 36.85 74.4038 36.64 76.0238 36.64H80.6738V39.13H76.2938C75.0138 39.13 74.1538 39.34 73.7138 39.76C73.2738 40.16 73.0538 40.66 73.0538 41.26C73.0538 41.94 73.3238 42.48 73.8638 42.88C74.4038 43.28 75.1538 43.48 76.1138 43.48C77.0338 43.48 77.8538 43.27 78.5738 42.85C79.3138 42.43 79.8438 41.81 80.1638 40.99L80.7938 43.24C80.4338 44.18 79.7838 44.91 78.8438 45.43C77.9238 45.95 76.7538 46.21 75.3338 46.21ZM95.3564 46.21C93.5964 46.21 92.2364 45.76 91.2764 44.86C90.3164 43.94 89.8364 42.59 89.8364 40.81V26.44H93.5864V40.72C93.5864 41.48 93.7764 42.07 94.1564 42.49C94.5564 42.91 95.1064 43.12 95.8064 43.12C96.6464 43.12 97.3464 42.9 97.9064 42.46L98.9564 45.13C98.5164 45.49 97.9764 45.76 97.3364 45.94C96.6964 46.12 96.0364 46.21 95.3564 46.21ZM87.1964 33.1V30.1H97.8764V33.1H87.1964ZM111.532 46V29.98H115.282V46H111.532ZM113.422 27.34C112.722 27.34 112.142 27.12 111.682 26.68C111.242 26.24 111.022 25.71 111.022 25.09C111.022 24.45 111.242 23.92 111.682 23.5C112.142 23.06 112.722 22.84 113.422 22.84C114.122 22.84 114.692 23.05 115.132 23.47C115.592 23.87 115.822 24.38 115.822 25C115.822 25.66 115.602 26.22 115.162 26.68C114.722 27.12 114.142 27.34 113.422 27.34ZM125.754 46.21C124.414 46.21 123.124 46.04 121.884 45.7C120.664 45.34 119.694 44.91 118.974 44.41L120.414 41.56C121.134 42.02 121.994 42.4 122.994 42.7C123.994 43 124.994 43.15 125.994 43.15C127.174 43.15 128.024 42.99 128.544 42.67C129.084 42.35 129.354 41.92 129.354 41.38C129.354 40.94 129.174 40.61 128.814 40.39C128.454 40.15 127.984 39.97 127.404 39.85C126.824 39.73 126.174 39.62 125.454 39.52C124.754 39.42 124.044 39.29 123.324 39.13C122.624 38.95 121.984 38.7 121.404 38.38C120.824 38.04 120.354 37.59 119.994 37.03C119.634 36.47 119.454 35.73 119.454 34.81C119.454 33.79 119.744 32.91 120.324 32.17C120.904 31.41 121.714 30.83 122.754 30.43C123.814 30.01 125.064 29.8 126.504 29.8C127.584 29.8 128.674 29.92 129.774 30.16C130.874 30.4 131.784 30.74 132.504 31.18L131.064 34.03C130.304 33.57 129.534 33.26 128.754 33.1C127.994 32.92 127.234 32.83 126.474 32.83C125.334 32.83 124.484 33 123.924 33.34C123.384 33.68 123.114 34.11 123.114 34.63C123.114 35.11 123.294 35.47 123.654 35.71C124.014 35.95 124.484 36.14 125.064 36.28C125.644 36.42 126.284 36.54 126.984 36.64C127.704 36.72 128.414 36.85 129.114 37.03C129.814 37.21 130.454 37.46 131.034 37.78C131.634 38.08 132.114 38.51 132.474 39.07C132.834 39.63 133.014 40.36 133.014 41.26C133.014 42.26 132.714 43.13 132.114 43.87C131.534 44.61 130.704 45.19 129.624 45.61C128.544 46.01 127.254 46.21 125.754 46.21ZM146.095 46V25H149.305L158.485 40.33H156.805L165.835 25H169.045L169.075 46H165.385L165.355 30.79H166.135L158.455 43.6H156.715L148.915 30.79H149.815V46H146.095ZM185.187 46.3C183.547 46.3 182.037 46.03 180.657 45.49C179.277 44.95 178.077 44.2 177.057 43.24C176.037 42.26 175.247 41.12 174.687 39.82C174.127 38.5 173.847 37.06 173.847 35.5C173.847 33.94 174.127 32.51 174.687 31.21C175.247 29.89 176.037 28.75 177.057 27.79C178.077 26.81 179.277 26.05 180.657 25.51C182.037 24.97 183.537 24.7 185.157 24.7C186.797 24.7 188.297 24.97 189.657 25.51C191.037 26.05 192.237 26.81 193.257 27.79C194.277 28.75 195.067 29.89 195.627 31.21C196.187 32.51 196.467 33.94 196.467 35.5C196.467 37.06 196.187 38.5 195.627 39.82C195.067 41.14 194.277 42.28 193.257 43.24C192.237 44.2 191.037 44.95 189.657 45.49C188.297 46.03 186.807 46.3 185.187 46.3ZM185.157 42.88C186.217 42.88 187.197 42.7 188.097 42.34C188.997 41.98 189.777 41.47 190.437 40.81C191.097 40.13 191.607 39.35 191.967 38.47C192.347 37.57 192.537 36.58 192.537 35.5C192.537 34.42 192.347 33.44 191.967 32.56C191.607 31.66 191.097 30.88 190.437 30.22C189.777 29.54 188.997 29.02 188.097 28.66C187.197 28.3 186.217 28.12 185.157 28.12C184.097 28.12 183.117 28.3 182.217 28.66C181.337 29.02 180.557 29.54 179.877 30.22C179.217 30.88 178.697 31.66 178.317 32.56C177.957 33.44 177.777 34.42 177.777 35.5C177.777 36.56 177.957 37.54 178.317 38.44C178.697 39.34 179.217 40.13 179.877 40.81C180.537 41.47 181.317 41.98 182.217 42.34C183.117 42.7 184.097 42.88 185.157 42.88ZM207.711 46.3C206.071 46.3 204.501 46.07 203.001 45.61C201.501 45.13 200.311 44.52 199.431 43.78L200.781 40.75C201.621 41.41 202.661 41.96 203.901 42.4C205.141 42.84 206.411 43.06 207.711 43.06C208.811 43.06 209.701 42.94 210.381 42.7C211.061 42.46 211.561 42.14 211.881 41.74C212.201 41.32 212.361 40.85 212.361 40.33C212.361 39.69 212.131 39.18 211.671 38.8C211.211 38.4 210.611 38.09 209.871 37.87C209.151 37.63 208.341 37.41 207.441 37.21C206.561 37.01 205.671 36.78 204.771 36.52C203.891 36.24 203.081 35.89 202.341 35.47C201.621 35.03 201.031 34.45 200.571 33.73C200.111 33.01 199.881 32.09 199.881 30.97C199.881 29.83 200.181 28.79 200.781 27.85C201.401 26.89 202.331 26.13 203.571 25.57C204.831 24.99 206.421 24.7 208.341 24.7C209.601 24.7 210.851 24.86 212.091 25.18C213.331 25.5 214.411 25.96 215.331 26.56L214.101 29.59C213.161 29.03 212.191 28.62 211.191 28.36C210.191 28.08 209.231 27.94 208.311 27.94C207.231 27.94 206.351 28.07 205.671 28.33C205.011 28.59 204.521 28.93 204.201 29.35C203.901 29.77 203.751 30.25 203.751 30.79C203.751 31.43 203.971 31.95 204.411 32.35C204.871 32.73 205.461 33.03 206.181 33.25C206.921 33.47 207.741 33.69 208.641 33.91C209.541 34.11 210.431 34.34 211.311 34.6C212.211 34.86 213.021 35.2 213.741 35.62C214.481 36.04 215.071 36.61 215.511 37.33C215.971 38.05 216.201 38.96 216.201 40.06C216.201 41.18 215.891 42.22 215.271 43.18C214.671 44.12 213.741 44.88 212.481 45.46C211.221 46.02 209.631 46.3 207.711 46.3ZM233.399 39.04C233.399 38.3 233.519 37.65 233.759 37.09C233.999 36.53 234.309 36.03 234.689 35.59C235.069 35.15 235.469 34.74 235.889 34.36C236.329 33.98 236.739 33.61 237.119 33.25C237.499 32.89 237.809 32.51 238.049 32.11C238.289 31.71 238.409 31.26 238.409 30.76C238.409 29.92 238.069 29.24 237.389 28.72C236.709 28.2 235.799 27.94 234.659 27.94C233.559 27.94 232.599 28.14 231.779 28.54C230.979 28.94 230.309 29.51 229.769 30.25L226.859 28.36C227.699 27.22 228.799 26.33 230.159 25.69C231.519 25.03 233.129 24.7 234.989 24.7C236.449 24.7 237.729 24.92 238.829 25.36C239.929 25.78 240.789 26.4 241.409 27.22C242.029 28.02 242.339 29 242.339 30.16C242.339 30.96 242.209 31.66 241.949 32.26C241.709 32.86 241.389 33.39 240.989 33.85C240.609 34.29 240.199 34.71 239.759 35.11C239.319 35.49 238.899 35.87 238.499 36.25C238.119 36.63 237.809 37.04 237.569 37.48C237.329 37.92 237.209 38.44 237.209 39.04H233.399ZM235.319 46.21C234.619 46.21 234.039 45.98 233.579 45.52C233.139 45.06 232.919 44.51 232.919 43.87C232.919 43.23 233.139 42.69 233.579 42.25C234.039 41.79 234.619 41.56 235.319 41.56C236.019 41.56 236.589 41.79 237.029 42.25C237.469 42.69 237.689 43.23 237.689 43.87C237.689 44.51 237.469 45.06 237.029 45.52C236.589 45.98 236.019 46.21 235.319 46.21Z" fill="black"/>
</svg>
